<svg xmlns="http://www.w3.org/2000/svg" viewBox="0 0 2400 2223" width="100%" height="auto" style="max-width:100%;display:block;font-family:Segoe UI,Arial,sans-serif">
<rect width="2400" height="2223" fill="#13132a"/>
<text x="1200" y="50" text-anchor="middle" fill="#ff9944" font-size="33" font-weight="bold">PF1E Strength Reference — PC Races to Great Old Ones</text>
<text x="1200" y="80" text-anchor="middle" fill="#888" font-size="17">Published PF1E stat blocks · Bestiary 1–6 · Poundage values derived from the official PF1E Strength carry capacity formulas</text>
<line x1="340.0" y1="115" x2="340.0" y2="2155" stroke="#ffffff14" stroke-width="0.7"/>
<text x="340.0" y="2175" text-anchor="middle" fill="#888" font-size="13" font-weight="normal">5</text>
<text x="340.0" y="105" text-anchor="middle" fill="#888" font-size="13" font-weight="normal">5</text>
<line x1="374.0" y1="115" x2="374.0" y2="2155" stroke="#ffffff07" stroke-width="0.3"/>
<line x1="408.0" y1="115" x2="408.0" y2="2155" stroke="#ffffff07" stroke-width="0.3"/>
<line x1="442.0" y1="115" x2="442.0" y2="2155" stroke="#ffffff07" stroke-width="0.3"/>
<line x1="476.0" y1="115" x2="476.0" y2="2155" stroke="#ffffff07" stroke-width="0.3"/>
<line x1="510.0" y1="115" x2="510.0" y2="2155" stroke="#ffffff2a" stroke-width="1"/>
<text x="510.0" y="2175" text-anchor="middle" fill="#ccc" font-size="16" font-weight="bold">10</text>
<text x="510.0" y="105" text-anchor="middle" fill="#ccc" font-size="16" font-weight="bold">10</text>
<line x1="544.0" y1="115" x2="544.0" y2="2155" stroke="#ffffff07" stroke-width="0.3"/>
<line x1="578.0" y1="115" x2="578.0" y2="2155" stroke="#ffffff07" stroke-width="0.3"/>
<line x1="612.0" y1="115" x2="612.0" y2="2155" stroke="#ffffff07" stroke-width="0.3"/>
<line x1="646.0" y1="115" x2="646.0" y2="2155" stroke="#ffffff07" stroke-width="0.3"/>
<line x1="680.0" y1="115" x2="680.0" y2="2155" stroke="#ffffff14" stroke-width="0.7"/>
<text x="680.0" y="2175" text-anchor="middle" fill="#888" font-size="13" font-weight="normal">15</text>
<text x="680.0" y="105" text-anchor="middle" fill="#888" font-size="13" font-weight="normal">15</text>
<line x1="714.0" y1="115" x2="714.0" y2="2155" stroke="#ffffff07" stroke-width="0.3"/>
<line x1="748.0" y1="115" x2="748.0" y2="2155" stroke="#ffffff07" stroke-width="0.3"/>
<line x1="782.0" y1="115" x2="782.0" y2="2155" stroke="#ffffff07" stroke-width="0.3"/>
<line x1="816.0" y1="115" x2="816.0" y2="2155" stroke="#ffffff07" stroke-width="0.3"/>
<line x1="850.0" y1="115" x2="850.0" y2="2155" stroke="#ffffff2a" stroke-width="1"/>
<text x="850.0" y="2175" text-anchor="middle" fill="#ccc" font-size="16" font-weight="bold">20</text>
<text x="850.0" y="105" text-anchor="middle" fill="#ccc" font-size="16" font-weight="bold">20</text>
<line x1="884.0" y1="115" x2="884.0" y2="2155" stroke="#ffffff07" stroke-width="0.3"/>
<line x1="918.0" y1="115" x2="918.0" y2="2155" stroke="#ffffff07" stroke-width="0.3"/>
<line x1="952.0" y1="115" x2="952.0" y2="2155" stroke="#ffffff07" stroke-width="0.3"/>
<line x1="986.0" y1="115" x2="986.0" y2="2155" stroke="#ffffff07" stroke-width="0.3"/>
<line x1="1020.0" y1="115" x2="1020.0" y2="2155" stroke="#ffffff14" stroke-width="0.7"/>
<text x="1020.0" y="2175" text-anchor="middle" fill="#888" font-size="13" font-weight="normal">25</text>
<text x="1020.0" y="105" text-anchor="middle" fill="#888" font-size="13" font-weight="normal">25</text>
<line x1="1054.0" y1="115" x2="1054.0" y2="2155" stroke="#ffffff07" stroke-width="0.3"/>
<line x1="1088.0" y1="115" x2="1088.0" y2="2155" stroke="#ffffff07" stroke-width="0.3"/>
<line x1="1122.0" y1="115" x2="1122.0" y2="2155" stroke="#ffffff07" stroke-width="0.3"/>
<line x1="1156.0" y1="115" x2="1156.0" y2="2155" stroke="#ffffff07" stroke-width="0.3"/>
<line x1="1190.0" y1="115" x2="1190.0" y2="2155" stroke="#ffffff2a" stroke-width="1"/>
<text x="1190.0" y="2175" text-anchor="middle" fill="#ccc" font-size="16" font-weight="bold">30</text>
<text x="1190.0" y="105" text-anchor="middle" fill="#ccc" font-size="16" font-weight="bold">30</text>
<line x1="1224.0" y1="115" x2="1224.0" y2="2155" stroke="#ffffff07" stroke-width="0.3"/>
<line x1="1258.0" y1="115" x2="1258.0" y2="2155" stroke="#ffffff07" stroke-width="0.3"/>
<line x1="1292.0" y1="115" x2="1292.0" y2="2155" stroke="#ffffff07" stroke-width="0.3"/>
<line x1="1326.0" y1="115" x2="1326.0" y2="2155" stroke="#ffffff07" stroke-width="0.3"/>
<line x1="1360.0" y1="115" x2="1360.0" y2="2155" stroke="#ffffff14" stroke-width="0.7"/>
<text x="1360.0" y="2175" text-anchor="middle" fill="#888" font-size="13" font-weight="normal">35</text>
<text x="1360.0" y="105" text-anchor="middle" fill="#888" font-size="13" font-weight="normal">35</text>
<line x1="1394.0" y1="115" x2="1394.0" y2="2155" stroke="#ffffff07" stroke-width="0.3"/>
<line x1="1428.0" y1="115" x2="1428.0" y2="2155" stroke="#ffffff07" stroke-width="0.3"/>
<line x1="1462.0" y1="115" x2="1462.0" y2="2155" stroke="#ffffff07" stroke-width="0.3"/>
<line x1="1496.0" y1="115" x2="1496.0" y2="2155" stroke="#ffffff07" stroke-width="0.3"/>
<line x1="1530.0" y1="115" x2="1530.0" y2="2155" stroke="#ffffff2a" stroke-width="1"/>
<text x="1530.0" y="2175" text-anchor="middle" fill="#ccc" font-size="16" font-weight="bold">40</text>
<text x="1530.0" y="105" text-anchor="middle" fill="#ccc" font-size="16" font-weight="bold">40</text>
<line x1="1564.0" y1="115" x2="1564.0" y2="2155" stroke="#ffffff07" stroke-width="0.3"/>
<line x1="1598.0" y1="115" x2="1598.0" y2="2155" stroke="#ffffff07" stroke-width="0.3"/>
<line x1="1632.0" y1="115" x2="1632.0" y2="2155" stroke="#ffffff07" stroke-width="0.3"/>
<line x1="1666.0" y1="115" x2="1666.0" y2="2155" stroke="#ffffff07" stroke-width="0.3"/>
<line x1="1700.0" y1="115" x2="1700.0" y2="2155" stroke="#ffffff14" stroke-width="0.7"/>
<text x="1700.0" y="2175" text-anchor="middle" fill="#888" font-size="13" font-weight="normal">45</text>
<text x="1700.0" y="105" text-anchor="middle" fill="#888" font-size="13" font-weight="normal">45</text>
<line x1="1734.0" y1="115" x2="1734.0" y2="2155" stroke="#ffffff07" stroke-width="0.3"/>
<line x1="1768.0" y1="115" x2="1768.0" y2="2155" stroke="#ffffff07" stroke-width="0.3"/>
<line x1="1802.0" y1="115" x2="1802.0" y2="2155" stroke="#ffffff07" stroke-width="0.3"/>
<line x1="1836.0" y1="115" x2="1836.0" y2="2155" stroke="#ffffff07" stroke-width="0.3"/>
<line x1="1870.0" y1="115" x2="1870.0" y2="2155" stroke="#ffffff2a" stroke-width="1"/>
<text x="1870.0" y="2175" text-anchor="middle" fill="#ccc" font-size="16" font-weight="bold">50</text>
<text x="1870.0" y="105" text-anchor="middle" fill="#ccc" font-size="16" font-weight="bold">50</text>
<line x1="1904.0" y1="115" x2="1904.0" y2="2155" stroke="#ffffff07" stroke-width="0.3"/>
<line x1="1938.0" y1="115" x2="1938.0" y2="2155" stroke="#ffffff07" stroke-width="0.3"/>
<line x1="1972.0" y1="115" x2="1972.0" y2="2155" stroke="#ffffff07" stroke-width="0.3"/>
<line x1="2006.0" y1="115" x2="2006.0" y2="2155" stroke="#ffffff07" stroke-width="0.3"/>
<line x1="2040.0" y1="115" x2="2040.0" y2="2155" stroke="#ffffff14" stroke-width="0.7"/>
<text x="2040.0" y="2175" text-anchor="middle" fill="#888" font-size="13" font-weight="normal">55</text>
<text x="2040.0" y="105" text-anchor="middle" fill="#888" font-size="13" font-weight="normal">55</text>
<line x1="2074.0" y1="115" x2="2074.0" y2="2155" stroke="#ffffff07" stroke-width="0.3"/>
<line x1="2108.0" y1="115" x2="2108.0" y2="2155" stroke="#ffffff07" stroke-width="0.3"/>
<line x1="2142.0" y1="115" x2="2142.0" y2="2155" stroke="#ffffff07" stroke-width="0.3"/>
<line x1="2176.0" y1="115" x2="2176.0" y2="2155" stroke="#ffffff07" stroke-width="0.3"/>
<line x1="2210.0" y1="115" x2="2210.0" y2="2155" stroke="#ffffff2a" stroke-width="1"/>
<text x="2210.0" y="2175" text-anchor="middle" fill="#ccc" font-size="16" font-weight="bold">60</text>
<text x="2210.0" y="105" text-anchor="middle" fill="#ccc" font-size="16" font-weight="bold">60</text>
<line x1="2244.0" y1="115" x2="2244.0" y2="2155" stroke="#ffffff07" stroke-width="0.3"/>
<line x1="2278.0" y1="115" x2="2278.0" y2="2155" stroke="#ffffff07" stroke-width="0.3"/>
<line x1="2312.0" y1="115" x2="2312.0" y2="2155" stroke="#ffffff07" stroke-width="0.3"/>
<line x1="2346.0" y1="115" x2="2346.0" y2="2155" stroke="#ffffff07" stroke-width="0.3"/>
<line x1="2380.0" y1="115" x2="2380.0" y2="2155" stroke="#ffffff14" stroke-width="0.7"/>
<text x="2380.0" y="2175" text-anchor="middle" fill="#888" font-size="13" font-weight="normal">65</text>
<text x="2380.0" y="105" text-anchor="middle" fill="#888" font-size="13" font-weight="normal">65</text>
<rect x="340" y="115.0" width="2040" height="34.0" fill="#9b8eff18"/>
<text x="328" y="139.5" text-anchor="end" fill="#9b8eff" font-size="15" font-weight="bold" font-style="italic">Small PC Races</text>
<line x1="340" y1="115.0" x2="2380" y2="115.0" stroke="#9b8eff55" stroke-width="0.8"/>
<rect x="340" y="156.5" width="34.0" height="19.0" fill="#9b8eff" opacity="0.82" rx="3"/>
<circle cx="374.0" cy="166.0" r="11.8" fill="#9b8eff"/>
<rect x="390.8" y="156.0" width="136" height="20" fill="#13132a" opacity="0.88" rx="3"/>
<text x="393.8" y="172.0" fill="#9b8eff" font-size="17" font-weight="bold">6  (60 / 120)</text>
<text x="328" y="172.0" text-anchor="end" fill="#ddd" font-size="18">Kobold (CR 1/4)</text>
<rect x="340" y="190.5" width="68.0" height="19.0" fill="#9b8eff" opacity="0.82" rx="3"/>
<circle cx="408.0" cy="200.0" r="11.8" fill="#9b8eff"/>
<rect x="424.8" y="190.0" width="136" height="20" fill="#13132a" opacity="0.88" rx="3"/>
<text x="427.8" y="206.0" fill="#9b8eff" font-size="17" font-weight="bold">7  (70 / 140)</text>
<text x="328" y="206.0" text-anchor="end" fill="#ddd" font-size="18">Gnome (F, avg)</text>
<rect x="340" y="224.5" width="68.0" height="19.0" fill="#9b8eff" opacity="0.82" rx="3"/>
<circle cx="408.0" cy="234.0" r="11.8" fill="#9b8eff"/>
<rect x="424.8" y="224.0" width="136" height="20" fill="#13132a" opacity="0.88" rx="3"/>
<text x="427.8" y="240.0" fill="#9b8eff" font-size="17" font-weight="bold">7  (70 / 140)</text>
<text x="328" y="240.0" text-anchor="end" fill="#ddd" font-size="18">Halfling (F, avg)</text>
<rect x="340" y="258.5" width="102.0" height="19.0" fill="#9b8eff" opacity="0.82" rx="3"/>
<circle cx="442.0" cy="268.0" r="11.8" fill="#9b8eff"/>
<rect x="458.8" y="258.0" width="136" height="20" fill="#13132a" opacity="0.88" rx="3"/>
<text x="461.8" y="274.0" fill="#9b8eff" font-size="17" font-weight="bold">8  (80 / 160)</text>
<text x="328" y="274.0" text-anchor="end" fill="#ddd" font-size="18">Gnome (M, avg)</text>
<rect x="340" y="292.5" width="102.0" height="19.0" fill="#9b8eff" opacity="0.82" rx="3"/>
<circle cx="442.0" cy="302.0" r="11.8" fill="#9b8eff"/>
<rect x="458.8" y="292.0" width="136" height="20" fill="#13132a" opacity="0.88" rx="3"/>
<text x="461.8" y="308.0" fill="#9b8eff" font-size="17" font-weight="bold">8  (80 / 160)</text>
<text x="328" y="308.0" text-anchor="end" fill="#ddd" font-size="18">Halfling (M, avg)</text>
<rect x="340" y="319.0" width="2040" height="34.0" fill="#4e8de018"/>
<text x="328" y="343.5" text-anchor="end" fill="#4e8de0" font-size="15" font-weight="bold" font-style="italic">Medium PC Races</text>
<line x1="340" y1="319.0" x2="2380" y2="319.0" stroke="#4e8de055" stroke-width="0.8"/>
<rect x="340" y="360.5" width="136.0" height="19.0" fill="#4e8de0" opacity="0.82" rx="3"/>
<circle cx="476.0" cy="370.0" r="11.8" fill="#4e8de0"/>
<rect x="492.8" y="360.0" width="136" height="20" fill="#13132a" opacity="0.88" rx="3"/>
<text x="495.8" y="376.0" fill="#4e8de0" font-size="17" font-weight="bold">9  (90 / 180)</text>
<text x="328" y="376.0" text-anchor="end" fill="#ddd" font-size="18">Elf (F, avg)</text>
<rect x="340" y="394.5" width="136.0" height="19.0" fill="#4e8de0" opacity="0.82" rx="3"/>
<circle cx="476.0" cy="404.0" r="11.8" fill="#4e8de0"/>
<rect x="492.8" y="394.0" width="136" height="20" fill="#13132a" opacity="0.88" rx="3"/>
<text x="495.8" y="410.0" fill="#4e8de0" font-size="17" font-weight="bold">9  (90 / 180)</text>
<text x="328" y="410.0" text-anchor="end" fill="#ddd" font-size="18">Human (F, avg)</text>
<rect x="340" y="428.5" width="170.0" height="19.0" fill="#4e8de0" opacity="0.82" rx="3"/>
<circle cx="510.0" cy="438.0" r="11.8" fill="#4e8de0"/>
<rect x="526.8" y="428.0" width="156" height="20" fill="#13132a" opacity="0.88" rx="3"/>
<text x="529.8" y="444.0" fill="#4e8de0" font-size="17" font-weight="bold">10  (100 / 200)</text>
<text x="328" y="444.0" text-anchor="end" fill="#ddd" font-size="18">Elf (M, avg)</text>
<rect x="340" y="462.5" width="170.0" height="19.0" fill="#4e8de0" opacity="0.82" rx="3"/>
<circle cx="510.0" cy="472.0" r="11.8" fill="#4e8de0"/>
<rect x="526.8" y="462.0" width="156" height="20" fill="#13132a" opacity="0.88" rx="3"/>
<text x="529.8" y="478.0" fill="#4e8de0" font-size="17" font-weight="bold">10  (100 / 200)</text>
<text x="328" y="478.0" text-anchor="end" fill="#ddd" font-size="18">Human (M, avg)</text>
<rect x="340" y="496.5" width="170.0" height="19.0" fill="#4e8de0" opacity="0.82" rx="3"/>
<circle cx="510.0" cy="506.0" r="11.8" fill="#4e8de0"/>
<rect x="526.8" y="496.0" width="156" height="20" fill="#13132a" opacity="0.88" rx="3"/>
<text x="529.8" y="512.0" fill="#4e8de0" font-size="17" font-weight="bold">10  (100 / 200)</text>
<text x="328" y="512.0" text-anchor="end" fill="#ddd" font-size="18">Half-Elf (avg)</text>
<rect x="340" y="530.5" width="170.0" height="19.0" fill="#4e8de0" opacity="0.82" rx="3"/>
<circle cx="510.0" cy="540.0" r="11.8" fill="#4e8de0"/>
<rect x="526.8" y="530.0" width="156" height="20" fill="#13132a" opacity="0.88" rx="3"/>
<text x="529.8" y="546.0" fill="#4e8de0" font-size="17" font-weight="bold">10  (100 / 200)</text>
<text x="328" y="546.0" text-anchor="end" fill="#ddd" font-size="18">Dwarf (F, avg)</text>
<rect x="340" y="564.5" width="204.0" height="19.0" fill="#4e8de0" opacity="0.82" rx="3"/>
<circle cx="544.0" cy="574.0" r="11.8" fill="#4e8de0"/>
<text x="563.8" y="580.0" fill="#4e8de0" font-size="17" font-weight="bold">11  (115 / 230)</text>
<text x="328" y="580.0" text-anchor="end" fill="#ddd" font-size="18">Dwarf (M, avg)</text>
<rect x="340" y="598.5" width="238.0" height="19.0" fill="#4e8de0" opacity="0.82" rx="3"/>
<circle cx="578.0" cy="608.0" r="11.8" fill="#4e8de0"/>
<text x="597.8" y="614.0" fill="#4e8de0" font-size="17" font-weight="bold">12  (130 / 260)</text>
<text x="328" y="614.0" text-anchor="end" fill="#ddd" font-size="18">Half-Orc (avg)</text>
<rect x="340" y="625.0" width="2040" height="34.0" fill="#58d6c018"/>
<text x="328" y="649.5" text-anchor="end" fill="#58d6c0" font-size="15" font-weight="bold" font-style="italic">Peak — Level 20</text>
<line x1="340" y1="625.0" x2="2380" y2="625.0" stroke="#58d6c055" stroke-width="0.8"/>
<rect x="340" y="666.5" width="544.0" height="19.0" fill="#58d6c0" opacity="0.82" rx="3"/>
<circle cx="884.0" cy="676.0" r="11.8" fill="#58d6c0"/>
<text x="903.8" y="682.0" fill="#58d6c0" font-size="17" font-weight="bold">21  (460 / 920)</text>
<text x="328" y="682.0" text-anchor="end" fill="#ddd" font-size="18">Gnome / Halfling peak (Lvl 20)</text>
<rect x="340" y="700.5" width="612.0" height="19.0" fill="#58d6c0" opacity="0.82" rx="3"/>
<circle cx="952.0" cy="710.0" r="11.8" fill="#58d6c0"/>
<text x="971.8" y="716.0" fill="#58d6c0" font-size="17" font-weight="bold">23  (600 / 1,200)</text>
<text x="328" y="716.0" text-anchor="end" fill="#ddd" font-size="18">Human / Elf / Dwarf peak (Lvl 20)</text>
<rect x="340" y="734.5" width="680.0" height="19.0" fill="#58d6c0" opacity="0.82" rx="3"/>
<circle cx="1020.0" cy="744.0" r="11.8" fill="#58d6c0"/>
<text x="1039.8" y="750.0" fill="#58d6c0" font-size="17" font-weight="bold">25  (800 / 1,600)</text>
<text x="328" y="750.0" text-anchor="end" fill="#ddd" font-size="18">Half-Orc peak (Lvl 20)</text>
<rect x="340" y="761.0" width="2040" height="34.0" fill="#ff448818"/>
<text x="328" y="785.5" text-anchor="end" fill="#ff4488" font-size="15" font-weight="bold" font-style="italic">Mythic</text>
<line x1="340" y1="761.0" x2="2380" y2="761.0" stroke="#ff448855" stroke-width="0.8"/>
<rect x="340" y="802.5" width="782.0" height="19.0" fill="#ff4488" opacity="0.82" rx="3"/>
<circle cx="1122.0" cy="812.0" r="11.8" fill="#ff4488"/>
<text x="1141.8" y="818.0" fill="#ff4488" font-size="17" font-weight="bold">28  (1,200 / 2,400)</text>
<text x="328" y="818.0" text-anchor="end" fill="#ddd" font-size="18">Mythic Fighter, Tier 5</text>
<rect x="340" y="836.5" width="952.0" height="19.0" fill="#ff4488" opacity="0.82" rx="3"/>
<circle cx="1292.0" cy="846.0" r="11.8" fill="#ff4488"/>
<text x="1311.8" y="852.0" fill="#ff4488" font-size="17" font-weight="bold">33  (2,400 / 4,800)</text>
<text x="328" y="852.0" text-anchor="end" fill="#ddd" font-size="18">Mythic Fighter, Tier 10</text>
<rect x="340" y="870.5" width="986.0" height="19.0" fill="#ff4488" opacity="0.82" rx="3"/>
<circle cx="1326.0" cy="880.0" r="11.8" fill="#ff4488"/>
<text x="1345.8" y="886.0" fill="#ff4488" font-size="17" font-weight="bold">34  (2,800 / 5,600)</text>
<text x="328" y="886.0" text-anchor="end" fill="#ddd" font-size="18">Mythic Barbarian, Tier 5 (rage)</text>
<rect x="340" y="904.5" width="1292.0" height="19.0" fill="#ff4488" opacity="0.82" rx="3"/>
<circle cx="1632.0" cy="914.0" r="11.8" fill="#ff4488"/>
<text x="1651.8" y="920.0" fill="#ff4488" font-size="17" font-weight="bold">43  (9,600 / 19,200)</text>
<text x="328" y="920.0" text-anchor="end" fill="#ddd" font-size="18">Mythic Barbarian, Tier 10 (rage)</text>
<rect x="340" y="931.0" width="2040" height="34.0" fill="#c97f3a18"/>
<text x="328" y="955.5" text-anchor="end" fill="#c97f3a" font-size="15" font-weight="bold" font-style="italic">Humanoids</text>
<line x1="340" y1="931.0" x2="2380" y2="931.0" stroke="#c97f3a55" stroke-width="0.8"/>
<rect x="340" y="972.5" width="204.0" height="19.0" fill="#c97f3a" opacity="0.82" rx="3"/>
<circle cx="544.0" cy="982.0" r="11.8" fill="#c97f3a"/>
<text x="563.8" y="988.0" fill="#c97f3a" font-size="17" font-weight="bold">11  (115 / 230)</text>
<text x="328" y="988.0" text-anchor="end" fill="#ddd" font-size="18">Goblin (CR 1/3)</text>
<rect x="340" y="1006.5" width="272.0" height="19.0" fill="#c97f3a" opacity="0.82" rx="3"/>
<circle cx="612.0" cy="1016.0" r="11.8" fill="#c97f3a"/>
<text x="631.8" y="1022.0" fill="#c97f3a" font-size="17" font-weight="bold">13  (150 / 300)</text>
<text x="328" y="1022.0" text-anchor="end" fill="#ddd" font-size="18">Hobgoblin (CR 1)</text>
<rect x="340" y="1040.5" width="340.0" height="19.0" fill="#c97f3a" opacity="0.82" rx="3"/>
<circle cx="680.0" cy="1050.0" r="11.8" fill="#c97f3a"/>
<text x="699.8" y="1056.0" fill="#c97f3a" font-size="17" font-weight="bold">15  (200 / 400)</text>
<text x="328" y="1056.0" text-anchor="end" fill="#ddd" font-size="18">Gnoll (CR 1)</text>
<rect x="340" y="1074.5" width="408.0" height="19.0" fill="#c97f3a" opacity="0.82" rx="3"/>
<circle cx="748.0" cy="1084.0" r="11.8" fill="#c97f3a"/>
<text x="767.8" y="1090.0" fill="#c97f3a" font-size="17" font-weight="bold">17  (260 / 520)</text>
<text x="328" y="1090.0" text-anchor="end" fill="#ddd" font-size="18">Orc Warrior (CR 1/2)</text>
<rect x="340" y="1108.5" width="476.0" height="19.0" fill="#c97f3a" opacity="0.82" rx="3"/>
<circle cx="816.0" cy="1118.0" r="11.8" fill="#c97f3a"/>
<text x="835.8" y="1124.0" fill="#c97f3a" font-size="17" font-weight="bold">19  (350 / 700)</text>
<text x="328" y="1124.0" text-anchor="end" fill="#ddd" font-size="18">Bugbear (CR 2)</text>
<rect x="340" y="1135.0" width="2040" height="34.0" fill="#d65c4a18"/>
<text x="328" y="1159.5" text-anchor="end" fill="#d65c4a" font-size="15" font-weight="bold" font-style="italic">Monsters</text>
<line x1="340" y1="1135.0" x2="2380" y2="1135.0" stroke="#d65c4a55" stroke-width="0.8"/>
<rect x="340" y="1176.5" width="476.0" height="19.0" fill="#d65c4a" opacity="0.82" rx="3"/>
<circle cx="816.0" cy="1186.0" r="11.8" fill="#d65c4a"/>
<text x="835.8" y="1192.0" fill="#d65c4a" font-size="17" font-weight="bold">19  (350 / 700)</text>
<text x="328" y="1192.0" text-anchor="end" fill="#ddd" font-size="18">Minotaur (CR 4)</text>
<rect x="340" y="1210.5" width="544.0" height="19.0" fill="#d65c4a" opacity="0.82" rx="3"/>
<circle cx="884.0" cy="1220.0" r="11.8" fill="#d65c4a"/>
<text x="903.8" y="1226.0" fill="#d65c4a" font-size="17" font-weight="bold">21  (460 / 920)</text>
<text x="328" y="1226.0" text-anchor="end" fill="#ddd" font-size="18">Ogre (CR 3)</text>
<rect x="340" y="1244.5" width="612.0" height="19.0" fill="#d65c4a" opacity="0.82" rx="3"/>
<circle cx="952.0" cy="1254.0" r="11.8" fill="#d65c4a"/>
<text x="971.8" y="1260.0" fill="#d65c4a" font-size="17" font-weight="bold">23  (600 / 1,200)</text>
<text x="328" y="1260.0" text-anchor="end" fill="#ddd" font-size="18">Troll (CR 5)</text>
<rect x="340" y="1278.5" width="612.0" height="19.0" fill="#d65c4a" opacity="0.82" rx="3"/>
<circle cx="952.0" cy="1288.0" r="11.8" fill="#d65c4a"/>
<text x="971.8" y="1294.0" fill="#d65c4a" font-size="17" font-weight="bold">23  (600 / 1,200)</text>
<text x="328" y="1294.0" text-anchor="end" fill="#ddd" font-size="18">Ettin (CR 6)</text>
<rect x="340" y="1312.5" width="612.0" height="19.0" fill="#d65c4a" opacity="0.82" rx="3"/>
<circle cx="952.0" cy="1322.0" r="11.8" fill="#d65c4a"/>
<text x="971.8" y="1328.0" fill="#d65c4a" font-size="17" font-weight="bold">23  (600 / 1,200)</text>
<text x="328" y="1328.0" text-anchor="end" fill="#ddd" font-size="18">Cyclops (CR 5)</text>
<rect x="340" y="1339.0" width="2040" height="34.0" fill="#4a9e5c18"/>
<text x="328" y="1363.5" text-anchor="end" fill="#4a9e5c" font-size="15" font-weight="bold" font-style="italic">Dire Animals</text>
<line x1="340" y1="1339.0" x2="2380" y2="1339.0" stroke="#4a9e5c55" stroke-width="0.8"/>
<rect x="340" y="1380.5" width="680.0" height="19.0" fill="#4a9e5c" opacity="0.82" rx="3"/>
<circle cx="1020.0" cy="1390.0" r="11.8" fill="#4a9e5c"/>
<text x="1039.8" y="1396.0" fill="#4a9e5c" font-size="17" font-weight="bold">25  (800 / 1,600)</text>
<text x="328" y="1396.0" text-anchor="end" fill="#ddd" font-size="18">Dire Wolf (CR 3)</text>
<rect x="340" y="1414.5" width="748.0" height="19.0" fill="#4a9e5c" opacity="0.82" rx="3"/>
<circle cx="1088.0" cy="1424.0" r="11.8" fill="#4a9e5c"/>
<text x="1107.8" y="1430.0" fill="#4a9e5c" font-size="17" font-weight="bold">27  (1,040 / 2,080)</text>
<text x="328" y="1430.0" text-anchor="end" fill="#ddd" font-size="18">Dire Bear (CR 7)</text>
<rect x="340" y="1441.0" width="2040" height="34.0" fill="#e8922a18"/>
<text x="328" y="1465.5" text-anchor="end" fill="#e8922a" font-size="15" font-weight="bold" font-style="italic">Giants</text>
<line x1="340" y1="1441.0" x2="2380" y2="1441.0" stroke="#e8922a55" stroke-width="0.8"/>
<rect x="340" y="1482.5" width="680.0" height="19.0" fill="#e8922a" opacity="0.82" rx="3"/>
<circle cx="1020.0" cy="1492.0" r="11.8" fill="#e8922a"/>
<text x="1039.8" y="1498.0" fill="#e8922a" font-size="17" font-weight="bold">25  (800 / 1,600)</text>
<text x="328" y="1498.0" text-anchor="end" fill="#ddd" font-size="18">Hill Giant (CR 7)</text>
<rect x="340" y="1516.5" width="748.0" height="19.0" fill="#e8922a" opacity="0.82" rx="3"/>
<circle cx="1088.0" cy="1526.0" r="11.8" fill="#e8922a"/>
<text x="1107.8" y="1532.0" fill="#e8922a" font-size="17" font-weight="bold">27  (1,040 / 2,080)</text>
<text x="328" y="1532.0" text-anchor="end" fill="#ddd" font-size="18">Stone Giant (CR 8)</text>
<rect x="340" y="1550.5" width="816.0" height="19.0" fill="#e8922a" opacity="0.82" rx="3"/>
<circle cx="1156.0" cy="1560.0" r="11.8" fill="#e8922a"/>
<text x="1175.8" y="1566.0" fill="#e8922a" font-size="17" font-weight="bold">29  (1,360 / 2,720)</text>
<text x="328" y="1566.0" text-anchor="end" fill="#ddd" font-size="18">Frost Giant (CR 9)</text>
<rect x="340" y="1584.5" width="884.0" height="19.0" fill="#e8922a" opacity="0.82" rx="3"/>
<circle cx="1224.0" cy="1594.0" r="11.8" fill="#e8922a"/>
<text x="1243.8" y="1600.0" fill="#e8922a" font-size="17" font-weight="bold">31  (1,840 / 3,680)</text>
<text x="328" y="1600.0" text-anchor="end" fill="#ddd" font-size="18">Fire Giant (CR 10)</text>
<rect x="340" y="1618.5" width="1020.0" height="19.0" fill="#e8922a" opacity="0.82" rx="3"/>
<circle cx="1360.0" cy="1628.0" r="11.8" fill="#e8922a"/>
<text x="1379.8" y="1634.0" fill="#e8922a" font-size="17" font-weight="bold">35  (3,200 / 6,400)</text>
<text x="328" y="1634.0" text-anchor="end" fill="#ddd" font-size="18">Cloud Giant (CR 11)</text>
<rect x="340" y="1652.5" width="1156.0" height="19.0" fill="#e8922a" opacity="0.82" rx="3"/>
<circle cx="1496.0" cy="1662.0" r="11.8" fill="#e8922a"/>
<text x="1515.8" y="1668.0" fill="#e8922a" font-size="17" font-weight="bold">39  (5,440 / 10,880)</text>
<text x="328" y="1668.0" text-anchor="end" fill="#ddd" font-size="18">Storm Giant (CR 13)</text>
<rect x="340" y="1679.0" width="2040" height="34.0" fill="#b85ce818"/>
<text x="328" y="1703.5" text-anchor="end" fill="#b85ce8" font-size="15" font-weight="bold" font-style="italic">Outsiders</text>
<line x1="340" y1="1679.0" x2="2380" y2="1679.0" stroke="#b85ce855" stroke-width="0.8"/>
<rect x="340" y="1720.5" width="884.0" height="19.0" fill="#b85ce8" opacity="0.82" rx="3"/>
<circle cx="1224.0" cy="1730.0" r="11.8" fill="#b85ce8"/>
<text x="1243.8" y="1736.0" fill="#b85ce8" font-size="17" font-weight="bold">31  (1,840 / 3,680)</text>
<text x="328" y="1736.0" text-anchor="end" fill="#ddd" font-size="18">Pit Fiend (CR 20)</text>
<rect x="340" y="1754.5" width="986.0" height="19.0" fill="#b85ce8" opacity="0.82" rx="3"/>
<circle cx="1326.0" cy="1764.0" r="11.8" fill="#b85ce8"/>
<text x="1345.8" y="1770.0" fill="#b85ce8" font-size="17" font-weight="bold">34  (2,800 / 5,600)</text>
<text x="328" y="1770.0" text-anchor="end" fill="#ddd" font-size="18">Balor (CR 20)</text>
<rect x="340" y="1781.0" width="2040" height="34.0" fill="#cc444418"/>
<text x="328" y="1805.5" text-anchor="end" fill="#cc4444" font-size="15" font-weight="bold" font-style="italic">Dragons</text>
<line x1="340" y1="1781.0" x2="2380" y2="1781.0" stroke="#cc444455" stroke-width="0.8"/>
<rect x="340" y="1822.5" width="884.0" height="19.0" fill="#cc4444" opacity="0.82" rx="3"/>
<circle cx="1224.0" cy="1832.0" r="11.8" fill="#cc4444"/>
<text x="1243.8" y="1838.0" fill="#cc4444" font-size="17" font-weight="bold">31  (1,840 / 3,680)</text>
<text x="328" y="1838.0" text-anchor="end" fill="#ddd" font-size="18">Adult Red Dragon (CR 15)</text>
<rect x="340" y="1849.0" width="2040" height="34.0" fill="#e8c44a18"/>
<text x="328" y="1873.5" text-anchor="end" fill="#e8c44a" font-size="15" font-weight="bold" font-style="italic">Divine</text>
<line x1="340" y1="1849.0" x2="2380" y2="1849.0" stroke="#e8c44a55" stroke-width="0.8"/>
<rect x="340" y="1890.5" width="918.0" height="19.0" fill="#e8c44a" opacity="0.82" rx="3"/>
<circle cx="1258.0" cy="1900.0" r="11.8" fill="#e8c44a"/>
<text x="1277.8" y="1906.0" fill="#e8c44a" font-size="17" font-weight="bold">32  (2,080 / 4,160)</text>
<text x="328" y="1906.0" text-anchor="end" fill="#ddd" font-size="18">Ragathiel, Empyreal Lord CR26</text>
<rect x="340" y="1917.0" width="2040" height="34.0" fill="#ffd70018"/>
<text x="328" y="1941.5" text-anchor="end" fill="#ffd700" font-size="15" font-weight="bold" font-style="italic">Legendary</text>
<line x1="340" y1="1917.0" x2="2380" y2="1917.0" stroke="#ffd70055" stroke-width="0.8"/>
<rect x="340" y="1958.5" width="1224.0" height="19.0" fill="#ffd700" opacity="0.82" rx="3"/>
<circle cx="1564.0" cy="1968.0" r="11.8" fill="#ffd700"/>
<text x="1583.8" y="1974.0" fill="#ffd700" font-size="17" font-weight="bold">41  (7,360 / 14,720)</text>
<text x="328" y="1974.0" text-anchor="end" fill="#ddd" font-size="18">Tarrasque (CR 25)</text>
<rect x="340" y="1985.0" width="2040" height="34.0" fill="#ff225518"/>
<text x="328" y="2009.5" text-anchor="end" fill="#ff2255" font-size="15" font-weight="bold" font-style="italic">Demon Lords</text>
<line x1="340" y1="1985.0" x2="2380" y2="1985.0" stroke="#ff225555" stroke-width="0.8"/>
<rect x="340" y="2026.5" width="1054.0" height="19.0" fill="#ff2255" opacity="0.82" rx="3"/>
<circle cx="1394.0" cy="2036.0" r="11.8" fill="#ff2255"/>
<text x="1413.8" y="2042.0" fill="#ff2255" font-size="17" font-weight="bold">36  (3,680 / 7,360)</text>
<text x="328" y="2042.0" text-anchor="end" fill="#ddd" font-size="18">Baphomet, Demon Lord (CR 26)</text>
<rect x="340" y="2060.5" width="1190.0" height="19.0" fill="#ff2255" opacity="0.82" rx="3"/>
<circle cx="1530.0" cy="2070.0" r="11.8" fill="#ff2255"/>
<text x="1549.8" y="2076.0" fill="#ff2255" font-size="17" font-weight="bold">40  (6,400 / 12,800)</text>
<text x="328" y="2076.0" text-anchor="end" fill="#ddd" font-size="18">Pazuzu, Demon Lord (CR 28)</text>
<rect x="340" y="2087.0" width="2040" height="34.0" fill="#44ffcc18"/>
<text x="328" y="2111.5" text-anchor="end" fill="#44ffcc" font-size="15" font-weight="bold" font-style="italic">Great Old Ones</text>
<line x1="340" y1="2087.0" x2="2380" y2="2087.0" stroke="#44ffcc55" stroke-width="0.8"/>
<rect x="340" y="2128.5" width="1734.0" height="19.0" fill="#44ffcc" opacity="0.82" rx="3"/>
<circle cx="2074.0" cy="2138.0" r="11.8" fill="#44ffcc"/>
<text x="2093.8" y="2144.0" fill="#44ffcc" font-size="17" font-weight="bold">56  (58,880 / 117,760)</text>
<text x="328" y="2144.0" text-anchor="end" fill="#ddd" font-size="18">Cthulhu, Great Old One (CR 30)</text>
<rect x="340" y="115" width="2040" height="2040" fill="none" stroke="#555" stroke-width="1"/>
<text x="1360" y="2193" text-anchor="middle" fill="#aaa" font-size="17">Strength Score (5–65)</text>
<text x="1200" y="2215" text-anchor="middle" fill="#444" font-size="12">Fan-created reference. Pathfinder® is a trademark of Paizo Inc. Stat block data used under the Paizo Community Use Policy (paizo.com/community/communityuse). Carry capacity formulas © Paizo Inc., Pathfinder RPG Core Rulebook.</text>
<rect x="1780.0" y="127" width="590" height="458" fill="#1a1a3a" stroke="#445" stroke-width="1" rx="6"/>
<rect x="1790.0" y="137" width="16" height="16" fill="#9b8eff" rx="2"/>
<text x="1813.0" y="151" fill="#ccc" font-size="17">Small PC Races</text>
<rect x="1790.0" y="163" width="16" height="16" fill="#4e8de0" rx="2"/>
<text x="1813.0" y="177" fill="#ccc" font-size="17">Medium PC Races</text>
<rect x="1790.0" y="189" width="16" height="16" fill="#58d6c0" rx="2"/>
<text x="1813.0" y="203" fill="#ccc" font-size="17">Peak — Level 20</text>
<rect x="1790.0" y="215" width="16" height="16" fill="#ff4488" rx="2"/>
<text x="1813.0" y="229" fill="#ccc" font-size="17">Mythic</text>
<rect x="1790.0" y="241" width="16" height="16" fill="#c97f3a" rx="2"/>
<text x="1813.0" y="255" fill="#ccc" font-size="17">Humanoids</text>
<rect x="1790.0" y="267" width="16" height="16" fill="#d65c4a" rx="2"/>
<text x="1813.0" y="281" fill="#ccc" font-size="17">Monsters</text>
<rect x="1790.0" y="293" width="16" height="16" fill="#4a9e5c" rx="2"/>
<text x="1813.0" y="307" fill="#ccc" font-size="17">Dire Animals</text>
<rect x="2075.0" y="137" width="16" height="16" fill="#e8922a" rx="2"/>
<text x="2098.0" y="151" fill="#ccc" font-size="17">Giants</text>
<rect x="2075.0" y="163" width="16" height="16" fill="#b85ce8" rx="2"/>
<text x="2098.0" y="177" fill="#ccc" font-size="17">Outsiders</text>
<rect x="2075.0" y="189" width="16" height="16" fill="#cc4444" rx="2"/>
<text x="2098.0" y="203" fill="#ccc" font-size="17">Dragons</text>
<rect x="2075.0" y="215" width="16" height="16" fill="#e8c44a" rx="2"/>
<text x="2098.0" y="229" fill="#ccc" font-size="17">Divine</text>
<rect x="2075.0" y="241" width="16" height="16" fill="#ffd700" rx="2"/>
<text x="2098.0" y="255" fill="#ccc" font-size="17">Legendary</text>
<rect x="2075.0" y="267" width="16" height="16" fill="#ff2255" rx="2"/>
<text x="2098.0" y="281" fill="#ccc" font-size="17">Demon Lords</text>
<rect x="2075.0" y="293" width="16" height="16" fill="#44ffcc" rx="2"/>
<text x="2098.0" y="307" fill="#ccc" font-size="17">Great Old Ones</text>
<line x1="1788.0" y1="329" x2="2362.0" y2="329" stroke="#667" stroke-width="1"/>
<text x="1790.0" y="362" fill="#ffffff" font-size="17" font-weight="bold">STR  (OL / ML)</text>
<text x="1790.0" y="385" fill="#ff9944" font-size="17" font-weight="bold">STR</text>
<text x="1832.0" y="385" fill="#ccc" font-size="17">= Strength Score</text>
<text x="1790.0" y="408" fill="#ff9944" font-size="17" font-weight="bold">OL</text>
<text x="1832.0" y="408" fill="#ccc" font-size="17">= Overhead Lift — heavy load maximum (lbs)</text>
<text x="1790.0" y="431" fill="#ff9944" font-size="17" font-weight="bold">ML</text>
<text x="1832.0" y="431" fill="#ccc" font-size="17">= Max Lift — overhead × 2, stagger only (lbs)</text>
<line x1="1788.0" y1="451" x2="2362.0" y2="451" stroke="#667" stroke-width="1"/>
<text x="1790.0" y="476" fill="#aaa" font-size="17">All figures sourced from official PF1E published stat blocks (Bestiary 1–6).</text>
<text x="1790.0" y="499" fill="#aaa" font-size="17">Exceptions:</text>
<text x="1790.0" y="522" fill="#aaa" font-size="17">Peak (Level 20 rules-derived, no magic items),</text>
<text x="1790.0" y="545" fill="#aaa" font-size="17">Mythic (rules-derived, approximate).</text>
<text x="1790.0" y="568" fill="#aaa" font-size="17">Hastur (CR 29 Great Old One) — STR score is unofficial</text>
</svg>