<svg xmlns="http://www.w3.org/2000/svg"
     viewBox="0 0 2400 1600"
     width="100%" height="auto"
     style="max-width:100%;display:block;background:#12122a;font-family:Segoe UI,Arial,sans-serif">
<rect width="2400" height="1600" fill="#12122a"/>
<text x="1200" y="36" text-anchor="middle" fill="#ff6600" font-size="28" font-weight="bold">PF1e Strength Carry Capacity — STR 0 to 70</text>
<text x="1200" y="54" text-anchor="middle" fill="#888" font-size="16">Log scale · STR 0 at bottom</text>
<line x1="80.0" y1="60" x2="80.0" y2="1530" stroke="#ffffff26" stroke-width="1"/>
<text x="80.0" y="1550" text-anchor="middle" fill="#bbbbbb" font-size="14" font-weight="bold">1 lbs</text>
<text x="80.0" y="50" text-anchor="middle" fill="#bbbbbb" font-size="14" font-weight="bold">1 lbs</text>
<line x1="184.9" y1="60" x2="184.9" y2="1530" stroke="#ffffff14" stroke-width="0.5"/>
<text x="184.9" y="1550" text-anchor="middle" fill="#777777" font-size="11" font-weight="normal">2 lbs</text>
<text x="184.9" y="50" text-anchor="middle" fill="#777777" font-size="11" font-weight="normal">2 lbs</text>
<line x1="323.5" y1="60" x2="323.5" y2="1530" stroke="#ffffff14" stroke-width="0.5"/>
<text x="323.5" y="1550" text-anchor="middle" fill="#777777" font-size="11" font-weight="normal">5 lbs</text>
<text x="323.5" y="50" text-anchor="middle" fill="#777777" font-size="11" font-weight="normal">5 lbs</text>
<line x1="428.4" y1="60" x2="428.4" y2="1530" stroke="#ffffff26" stroke-width="1"/>
<text x="428.4" y="1550" text-anchor="middle" fill="#bbbbbb" font-size="14" font-weight="bold">10 lbs</text>
<text x="428.4" y="50" text-anchor="middle" fill="#bbbbbb" font-size="14" font-weight="bold">10 lbs</text>
<line x1="533.3" y1="60" x2="533.3" y2="1530" stroke="#ffffff14" stroke-width="0.5"/>
<text x="533.3" y="1550" text-anchor="middle" fill="#777777" font-size="11" font-weight="normal">20 lbs</text>
<text x="533.3" y="50" text-anchor="middle" fill="#777777" font-size="11" font-weight="normal">20 lbs</text>
<line x1="671.9" y1="60" x2="671.9" y2="1530" stroke="#ffffff14" stroke-width="0.5"/>
<text x="671.9" y="1550" text-anchor="middle" fill="#777777" font-size="11" font-weight="normal">50 lbs</text>
<text x="671.9" y="50" text-anchor="middle" fill="#777777" font-size="11" font-weight="normal">50 lbs</text>
<line x1="776.8" y1="60" x2="776.8" y2="1530" stroke="#ffffff26" stroke-width="1"/>
<text x="776.8" y="1550" text-anchor="middle" fill="#bbbbbb" font-size="14" font-weight="bold">100 lbs</text>
<text x="776.8" y="50" text-anchor="middle" fill="#bbbbbb" font-size="14" font-weight="bold">100 lbs</text>
<line x1="881.7" y1="60" x2="881.7" y2="1530" stroke="#ffffff14" stroke-width="0.5"/>
<text x="881.7" y="1550" text-anchor="middle" fill="#777777" font-size="11" font-weight="normal">200 lbs</text>
<text x="881.7" y="50" text-anchor="middle" fill="#777777" font-size="11" font-weight="normal">200 lbs</text>
<line x1="1020.4" y1="60" x2="1020.4" y2="1530" stroke="#ffffff14" stroke-width="0.5"/>
<text x="1020.4" y="1550" text-anchor="middle" fill="#777777" font-size="11" font-weight="normal">500 lbs</text>
<text x="1020.4" y="50" text-anchor="middle" fill="#777777" font-size="11" font-weight="normal">500 lbs</text>
<line x1="1125.2" y1="60" x2="1125.2" y2="1530" stroke="#ffffff26" stroke-width="1"/>
<text x="1125.2" y="1550" text-anchor="middle" fill="#bbbbbb" font-size="14" font-weight="bold">1.0k lbs</text>
<text x="1125.2" y="50" text-anchor="middle" fill="#bbbbbb" font-size="14" font-weight="bold">1.0k lbs</text>
<line x1="1230.1" y1="60" x2="1230.1" y2="1530" stroke="#ffffff14" stroke-width="0.5"/>
<text x="1230.1" y="1550" text-anchor="middle" fill="#777777" font-size="11" font-weight="normal">1.0 tons</text>
<text x="1230.1" y="50" text-anchor="middle" fill="#777777" font-size="11" font-weight="normal">1.0 tons</text>
<line x1="1368.8" y1="60" x2="1368.8" y2="1530" stroke="#ffffff14" stroke-width="0.5"/>
<text x="1368.8" y="1550" text-anchor="middle" fill="#777777" font-size="11" font-weight="normal">2.5 tons</text>
<text x="1368.8" y="50" text-anchor="middle" fill="#777777" font-size="11" font-weight="normal">2.5 tons</text>
<line x1="1473.7" y1="60" x2="1473.7" y2="1530" stroke="#ffffff26" stroke-width="1"/>
<text x="1473.7" y="1550" text-anchor="middle" fill="#bbbbbb" font-size="14" font-weight="bold">5.0 tons</text>
<text x="1473.7" y="50" text-anchor="middle" fill="#bbbbbb" font-size="14" font-weight="bold">5.0 tons</text>
<line x1="1578.5" y1="60" x2="1578.5" y2="1530" stroke="#ffffff14" stroke-width="0.5"/>
<text x="1578.5" y="1550" text-anchor="middle" fill="#777777" font-size="11" font-weight="normal">10 tons</text>
<text x="1578.5" y="50" text-anchor="middle" fill="#777777" font-size="11" font-weight="normal">10 tons</text>
<line x1="1717.2" y1="60" x2="1717.2" y2="1530" stroke="#ffffff14" stroke-width="0.5"/>
<text x="1717.2" y="1550" text-anchor="middle" fill="#777777" font-size="11" font-weight="normal">25 tons</text>
<text x="1717.2" y="50" text-anchor="middle" fill="#777777" font-size="11" font-weight="normal">25 tons</text>
<line x1="1822.1" y1="60" x2="1822.1" y2="1530" stroke="#ffffff26" stroke-width="1"/>
<text x="1822.1" y="1550" text-anchor="middle" fill="#bbbbbb" font-size="14" font-weight="bold">50 tons</text>
<text x="1822.1" y="50" text-anchor="middle" fill="#bbbbbb" font-size="14" font-weight="bold">50 tons</text>
<line x1="1926.9" y1="60" x2="1926.9" y2="1530" stroke="#ffffff14" stroke-width="0.5"/>
<text x="1926.9" y="1550" text-anchor="middle" fill="#777777" font-size="11" font-weight="normal">100 tons</text>
<text x="1926.9" y="50" text-anchor="middle" fill="#777777" font-size="11" font-weight="normal">100 tons</text>
<line x1="2065.6" y1="60" x2="2065.6" y2="1530" stroke="#ffffff14" stroke-width="0.5"/>
<text x="2065.6" y="1550" text-anchor="middle" fill="#777777" font-size="11" font-weight="normal">250 tons</text>
<text x="2065.6" y="50" text-anchor="middle" fill="#777777" font-size="11" font-weight="normal">250 tons</text>
<line x1="2170.5" y1="60" x2="2170.5" y2="1530" stroke="#ffffff26" stroke-width="1"/>
<text x="2170.5" y="1550" text-anchor="middle" fill="#bbbbbb" font-size="14" font-weight="bold">500 tons</text>
<text x="2170.5" y="50" text-anchor="middle" fill="#bbbbbb" font-size="14" font-weight="bold">500 tons</text>
<line x1="80" y1="1530.0" x2="2180" y2="1530.0" stroke="#ffffff20" stroke-width="1"/>
<text x="72" y="1534.0" text-anchor="end" fill="#cccccc" font-size="13" font-weight="bold">0</text>
<line x1="80" y1="1509.0" x2="2180" y2="1509.0" stroke="#ffffff07" stroke-width="0.3"/>
<line x1="80" y1="1488.0" x2="2180" y2="1488.0" stroke="#ffffff07" stroke-width="0.3"/>
<line x1="80" y1="1467.0" x2="2180" y2="1467.0" stroke="#ffffff07" stroke-width="0.3"/>
<line x1="80" y1="1446.0" x2="2180" y2="1446.0" stroke="#ffffff07" stroke-width="0.3"/>
<line x1="80" y1="1425.0" x2="2180" y2="1425.0" stroke="#ffffff10" stroke-width="0.5"/>
<text x="72" y="1429.0" text-anchor="end" fill="#777777" font-size="10" font-weight="normal">5</text>
<line x1="80" y1="1404.0" x2="2180" y2="1404.0" stroke="#ffffff07" stroke-width="0.3"/>
<line x1="80" y1="1383.0" x2="2180" y2="1383.0" stroke="#ffffff07" stroke-width="0.3"/>
<line x1="80" y1="1362.0" x2="2180" y2="1362.0" stroke="#ffffff07" stroke-width="0.3"/>
<line x1="80" y1="1341.0" x2="2180" y2="1341.0" stroke="#ffffff07" stroke-width="0.3"/>
<line x1="80" y1="1320.0" x2="2180" y2="1320.0" stroke="#ffffff20" stroke-width="1"/>
<text x="72" y="1324.0" text-anchor="end" fill="#cccccc" font-size="13" font-weight="bold">10</text>
<line x1="80" y1="1299.0" x2="2180" y2="1299.0" stroke="#ffffff07" stroke-width="0.3"/>
<line x1="80" y1="1278.0" x2="2180" y2="1278.0" stroke="#ffffff07" stroke-width="0.3"/>
<line x1="80" y1="1257.0" x2="2180" y2="1257.0" stroke="#ffffff07" stroke-width="0.3"/>
<line x1="80" y1="1236.0" x2="2180" y2="1236.0" stroke="#ffffff07" stroke-width="0.3"/>
<line x1="80" y1="1215.0" x2="2180" y2="1215.0" stroke="#ffffff10" stroke-width="0.5"/>
<text x="72" y="1219.0" text-anchor="end" fill="#777777" font-size="10" font-weight="normal">15</text>
<line x1="80" y1="1194.0" x2="2180" y2="1194.0" stroke="#ffffff07" stroke-width="0.3"/>
<line x1="80" y1="1173.0" x2="2180" y2="1173.0" stroke="#ffffff07" stroke-width="0.3"/>
<line x1="80" y1="1152.0" x2="2180" y2="1152.0" stroke="#ffffff07" stroke-width="0.3"/>
<line x1="80" y1="1131.0" x2="2180" y2="1131.0" stroke="#ffffff07" stroke-width="0.3"/>
<line x1="80" y1="1110.0" x2="2180" y2="1110.0" stroke="#ffffff20" stroke-width="1"/>
<text x="72" y="1114.0" text-anchor="end" fill="#cccccc" font-size="13" font-weight="bold">20</text>
<line x1="80" y1="1089.0" x2="2180" y2="1089.0" stroke="#ffffff07" stroke-width="0.3"/>
<line x1="80" y1="1068.0" x2="2180" y2="1068.0" stroke="#ffffff07" stroke-width="0.3"/>
<line x1="80" y1="1047.0" x2="2180" y2="1047.0" stroke="#ffffff07" stroke-width="0.3"/>
<line x1="80" y1="1026.0" x2="2180" y2="1026.0" stroke="#ffffff07" stroke-width="0.3"/>
<line x1="80" y1="1005.0" x2="2180" y2="1005.0" stroke="#ffffff10" stroke-width="0.5"/>
<text x="72" y="1009.0" text-anchor="end" fill="#777777" font-size="10" font-weight="normal">25</text>
<line x1="80" y1="984.0" x2="2180" y2="984.0" stroke="#ffffff07" stroke-width="0.3"/>
<line x1="80" y1="963.0" x2="2180" y2="963.0" stroke="#ffffff07" stroke-width="0.3"/>
<line x1="80" y1="942.0" x2="2180" y2="942.0" stroke="#ffffff07" stroke-width="0.3"/>
<line x1="80" y1="921.0" x2="2180" y2="921.0" stroke="#ffffff07" stroke-width="0.3"/>
<line x1="80" y1="900.0" x2="2180" y2="900.0" stroke="#ffffff20" stroke-width="1"/>
<text x="72" y="904.0" text-anchor="end" fill="#cccccc" font-size="13" font-weight="bold">30</text>
<line x1="80" y1="879.0" x2="2180" y2="879.0" stroke="#ffffff07" stroke-width="0.3"/>
<line x1="80" y1="858.0" x2="2180" y2="858.0" stroke="#ffffff07" stroke-width="0.3"/>
<line x1="80" y1="837.0" x2="2180" y2="837.0" stroke="#ffffff07" stroke-width="0.3"/>
<line x1="80" y1="816.0" x2="2180" y2="816.0" stroke="#ffffff07" stroke-width="0.3"/>
<line x1="80" y1="795.0" x2="2180" y2="795.0" stroke="#ffffff10" stroke-width="0.5"/>
<text x="72" y="799.0" text-anchor="end" fill="#777777" font-size="10" font-weight="normal">35</text>
<line x1="80" y1="774.0" x2="2180" y2="774.0" stroke="#ffffff07" stroke-width="0.3"/>
<line x1="80" y1="753.0" x2="2180" y2="753.0" stroke="#ffffff07" stroke-width="0.3"/>
<line x1="80" y1="732.0" x2="2180" y2="732.0" stroke="#ffffff07" stroke-width="0.3"/>
<line x1="80" y1="711.0" x2="2180" y2="711.0" stroke="#ffffff07" stroke-width="0.3"/>
<line x1="80" y1="690.0" x2="2180" y2="690.0" stroke="#ffffff20" stroke-width="1"/>
<text x="72" y="694.0" text-anchor="end" fill="#cccccc" font-size="13" font-weight="bold">40</text>
<line x1="80" y1="669.0" x2="2180" y2="669.0" stroke="#ffffff07" stroke-width="0.3"/>
<line x1="80" y1="648.0" x2="2180" y2="648.0" stroke="#ffffff07" stroke-width="0.3"/>
<line x1="80" y1="627.0" x2="2180" y2="627.0" stroke="#ffffff07" stroke-width="0.3"/>
<line x1="80" y1="606.0" x2="2180" y2="606.0" stroke="#ffffff07" stroke-width="0.3"/>
<line x1="80" y1="585.0" x2="2180" y2="585.0" stroke="#ffffff10" stroke-width="0.5"/>
<text x="72" y="589.0" text-anchor="end" fill="#777777" font-size="10" font-weight="normal">45</text>
<line x1="80" y1="564.0" x2="2180" y2="564.0" stroke="#ffffff07" stroke-width="0.3"/>
<line x1="80" y1="543.0" x2="2180" y2="543.0" stroke="#ffffff07" stroke-width="0.3"/>
<line x1="80" y1="522.0" x2="2180" y2="522.0" stroke="#ffffff07" stroke-width="0.3"/>
<line x1="80" y1="501.0" x2="2180" y2="501.0" stroke="#ffffff07" stroke-width="0.3"/>
<line x1="80" y1="480.0" x2="2180" y2="480.0" stroke="#ffffff20" stroke-width="1"/>
<text x="72" y="484.0" text-anchor="end" fill="#cccccc" font-size="13" font-weight="bold">50</text>
<line x1="80" y1="459.0" x2="2180" y2="459.0" stroke="#ffffff07" stroke-width="0.3"/>
<line x1="80" y1="438.0" x2="2180" y2="438.0" stroke="#ffffff07" stroke-width="0.3"/>
<line x1="80" y1="417.0" x2="2180" y2="417.0" stroke="#ffffff07" stroke-width="0.3"/>
<line x1="80" y1="396.0" x2="2180" y2="396.0" stroke="#ffffff07" stroke-width="0.3"/>
<line x1="80" y1="375.0" x2="2180" y2="375.0" stroke="#ffffff10" stroke-width="0.5"/>
<text x="72" y="379.0" text-anchor="end" fill="#777777" font-size="10" font-weight="normal">55</text>
<line x1="80" y1="354.0" x2="2180" y2="354.0" stroke="#ffffff07" stroke-width="0.3"/>
<line x1="80" y1="333.0" x2="2180" y2="333.0" stroke="#ffffff07" stroke-width="0.3"/>
<line x1="80" y1="312.0" x2="2180" y2="312.0" stroke="#ffffff07" stroke-width="0.3"/>
<line x1="80" y1="291.0" x2="2180" y2="291.0" stroke="#ffffff07" stroke-width="0.3"/>
<line x1="80" y1="270.0" x2="2180" y2="270.0" stroke="#ffffff20" stroke-width="1"/>
<text x="72" y="274.0" text-anchor="end" fill="#cccccc" font-size="13" font-weight="bold">60</text>
<line x1="80" y1="249.0" x2="2180" y2="249.0" stroke="#ffffff07" stroke-width="0.3"/>
<line x1="80" y1="228.0" x2="2180" y2="228.0" stroke="#ffffff07" stroke-width="0.3"/>
<line x1="80" y1="207.0" x2="2180" y2="207.0" stroke="#ffffff07" stroke-width="0.3"/>
<line x1="80" y1="186.0" x2="2180" y2="186.0" stroke="#ffffff07" stroke-width="0.3"/>
<line x1="80" y1="165.0" x2="2180" y2="165.0" stroke="#ffffff10" stroke-width="0.5"/>
<text x="72" y="169.0" text-anchor="end" fill="#777777" font-size="10" font-weight="normal">65</text>
<line x1="80" y1="144.0" x2="2180" y2="144.0" stroke="#ffffff07" stroke-width="0.3"/>
<line x1="80" y1="123.0" x2="2180" y2="123.0" stroke="#ffffff07" stroke-width="0.3"/>
<line x1="80" y1="102.0" x2="2180" y2="102.0" stroke="#ffffff07" stroke-width="0.3"/>
<line x1="80" y1="81.0" x2="2180" y2="81.0" stroke="#ffffff07" stroke-width="0.3"/>
<line x1="80" y1="60.0" x2="2180" y2="60.0" stroke="#ffffff20" stroke-width="1"/>
<text x="72" y="64.0" text-anchor="end" fill="#cccccc" font-size="13" font-weight="bold">70</text>
<line x1="80" y1="1320.0" x2="2180" y2="1320.0" stroke="#ffd70088" stroke-width="1" stroke-dasharray="5,4"/>
<text x="2190" y="1325.0" fill="#ffd700" font-size="13" font-weight="bold">Avg human</text>
<line x1="80" y1="1257.0" x2="2180" y2="1257.0" stroke="#ffd70088" stroke-width="1" stroke-dasharray="5,4"/>
<text x="2190" y="1262.0" fill="#ffd700" font-size="13" font-weight="bold">Johnny Blaze</text>
<line x1="80" y1="1152.0" x2="2180" y2="1152.0" stroke="#ffd70088" stroke-width="1" stroke-dasharray="5,4"/>
<text x="2190" y="1157.0" fill="#ffd700" font-size="13" font-weight="bold">Peak human</text>
<line x1="80" y1="1110.0" x2="2180" y2="1110.0" stroke="#ffd70088" stroke-width="1" stroke-dasharray="5,4"/>
<text x="2190" y="1115.0" fill="#ffd700" font-size="13" font-weight="bold">Low superhuman</text>
<line x1="80" y1="900.0" x2="2180" y2="900.0" stroke="#ffd70088" stroke-width="1" stroke-dasharray="5,4"/>
<text x="2190" y="905.0" fill="#ffd700" font-size="13" font-weight="bold">GR build (STR 30)</text>
<line x1="80" y1="732.0" x2="2180" y2="732.0" stroke="#ffd70088" stroke-width="1" stroke-dasharray="5,4"/>
<text x="2190" y="737.0" fill="#ffd700" font-size="13" font-weight="bold">Zarathos build (STR 38)</text>
<line x1="80" y1="606.0" x2="2180" y2="606.0" stroke="#ffd70088" stroke-width="1" stroke-dasharray="5,4"/>
<text x="2190" y="611.0" fill="#ffd700" font-size="13" font-weight="bold">GR classic — 5t overhead</text>
<line x1="80" y1="480.0" x2="2180" y2="480.0" stroke="#ffd70088" stroke-width="1" stroke-dasharray="5,4"/>
<text x="2190" y="485.0" fill="#ffd700" font-size="13" font-weight="bold">GR modern canon — 25t max lift</text>
<line x1="80" y1="270.0" x2="2180" y2="270.0" stroke="#ffd70088" stroke-width="1" stroke-dasharray="5,4"/>
<text x="2190" y="275.0" fill="#ffd700" font-size="13" font-weight="bold">Low Thor tier</text>
<line x1="80" y1="165.0" x2="2180" y2="165.0" stroke="#ffd70088" stroke-width="1" stroke-dasharray="5,4"/>
<text x="2190" y="170.0" fill="#ffd700" font-size="13" font-weight="bold">~103t max lift</text>
<line x1="80" y1="60.0" x2="2180" y2="60.0" stroke="#ffd70088" stroke-width="1" stroke-dasharray="5,4"/>
<text x="2190" y="65.0" fill="#ffd700" font-size="13" font-weight="bold">~410t overhead</text>
<polyline points="184.9,1530.0 533.3,1509.0 638.2,1488.0 699.5,1467.0 743.1,1446.0 776.8,1425.0 804.4,1404.0 827.7,1383.0 847.9,1362.0 865.8,1341.0 881.7,1320.0 902.9,1299.0 921.4,1278.0 943.1,1257.0 966.4,1236.0 986.6,1215.0 1007.7,1194.0 1026.3,1173.0 1047.9,1152.0 1071.3,1131.0 1091.5,1110.0 1112.6,1089.0 1131.2,1068.0 1152.8,1047.0 1176.2,1026.0 1196.4,1005.0 1217.5,984.0 1236.1,963.0 1257.7,942.0 1276.6,921.0 1301.2,900.0 1322.4,879.0 1340.9,858.0 1362.6,837.0 1385.9,816.0 1406.1,795.0 1427.3,774.0 1445.8,753.0 1467.5,732.0 1486.4,711.0 1511.0,690.0 1532.2,669.0 1550.7,648.0 1572.4,627.0 1595.7,606.0 1615.9,585.0 1637.0,564.0 1655.6,543.0 1677.2,522.0 1696.2,501.0 1720.8,480.0 1741.9,459.0 1760.5,438.0 1782.1,417.0 1805.4,396.0 1825.7,375.0 1846.8,354.0 1865.4,333.0 1887.0,312.0 1905.9,291.0 1930.5,270.0 1951.7,249.0 1970.2,228.0 1991.9,207.0 2015.2,186.0 2035.4,165.0 2056.6,144.0 2075.1,123.0 2096.8,102.0 2115.7,81.0 2140.3,60.0" fill="none" stroke="#4499ff" stroke-width="2.5" stroke-dasharray="10,5"/>
<polyline points="80.0,1530.0 428.4,1509.0 533.3,1488.0 594.6,1467.0 638.2,1446.0 671.9,1425.0 699.5,1404.0 722.9,1383.0 743.1,1362.0 760.9,1341.0 776.8,1320.0 798.0,1299.0 816.5,1278.0 838.2,1257.0 861.5,1236.0 881.7,1215.0 902.9,1194.0 921.4,1173.0 943.1,1152.0 966.4,1131.0 986.6,1110.0 1007.7,1089.0 1026.3,1068.0 1047.9,1047.0 1071.3,1026.0 1091.5,1005.0 1112.6,984.0 1131.2,963.0 1152.8,942.0 1171.8,921.0 1196.4,900.0 1217.5,879.0 1236.1,858.0 1257.7,837.0 1281.0,816.0 1301.2,795.0 1322.4,774.0 1340.9,753.0 1362.6,732.0 1381.5,711.0 1406.1,690.0 1427.3,669.0 1445.8,648.0 1467.5,627.0 1490.8,606.0 1511.0,585.0 1532.2,564.0 1550.7,543.0 1572.4,522.0 1591.3,501.0 1615.9,480.0 1637.0,459.0 1655.6,438.0 1677.2,417.0 1700.6,396.0 1720.8,375.0 1741.9,354.0 1760.5,333.0 1782.1,312.0 1801.1,291.0 1825.7,270.0 1846.8,249.0 1865.4,228.0 1887.0,207.0 1910.3,186.0 1930.5,165.0 1951.7,144.0 1970.2,123.0 1991.9,102.0 2010.8,81.0 2035.4,60.0" fill="none" stroke="#ff6600" stroke-width="2.5"/>
<circle cx="184.9" cy="1530.0" r="3" fill="#4499ff"/>
<circle cx="533.3" cy="1509.0" r="3" fill="#4499ff"/>
<circle cx="638.2" cy="1488.0" r="3" fill="#4499ff"/>
<circle cx="699.5" cy="1467.0" r="3" fill="#4499ff"/>
<circle cx="743.1" cy="1446.0" r="3" fill="#4499ff"/>
<circle cx="776.8" cy="1425.0" r="3" fill="#4499ff"/>
<circle cx="804.4" cy="1404.0" r="3" fill="#4499ff"/>
<circle cx="827.7" cy="1383.0" r="3" fill="#4499ff"/>
<circle cx="847.9" cy="1362.0" r="3" fill="#4499ff"/>
<circle cx="865.8" cy="1341.0" r="3" fill="#4499ff"/>
<circle cx="881.7" cy="1320.0" r="3" fill="#4499ff"/>
<circle cx="902.9" cy="1299.0" r="3" fill="#4499ff"/>
<circle cx="921.4" cy="1278.0" r="3" fill="#4499ff"/>
<circle cx="943.1" cy="1257.0" r="3" fill="#4499ff"/>
<circle cx="966.4" cy="1236.0" r="3" fill="#4499ff"/>
<circle cx="986.6" cy="1215.0" r="3" fill="#4499ff"/>
<circle cx="1007.7" cy="1194.0" r="3" fill="#4499ff"/>
<circle cx="1026.3" cy="1173.0" r="3" fill="#4499ff"/>
<circle cx="1047.9" cy="1152.0" r="3" fill="#4499ff"/>
<circle cx="1071.3" cy="1131.0" r="3" fill="#4499ff"/>
<circle cx="1091.5" cy="1110.0" r="3" fill="#4499ff"/>
<circle cx="1112.6" cy="1089.0" r="3" fill="#4499ff"/>
<circle cx="1131.2" cy="1068.0" r="3" fill="#4499ff"/>
<circle cx="1152.8" cy="1047.0" r="3" fill="#4499ff"/>
<circle cx="1176.2" cy="1026.0" r="3" fill="#4499ff"/>
<circle cx="1196.4" cy="1005.0" r="3" fill="#4499ff"/>
<circle cx="1217.5" cy="984.0" r="3" fill="#4499ff"/>
<circle cx="1236.1" cy="963.0" r="3" fill="#4499ff"/>
<circle cx="1257.7" cy="942.0" r="3" fill="#4499ff"/>
<circle cx="1276.6" cy="921.0" r="3" fill="#4499ff"/>
<circle cx="1301.2" cy="900.0" r="3" fill="#4499ff"/>
<circle cx="1322.4" cy="879.0" r="3" fill="#4499ff"/>
<circle cx="1340.9" cy="858.0" r="3" fill="#4499ff"/>
<circle cx="1362.6" cy="837.0" r="3" fill="#4499ff"/>
<circle cx="1385.9" cy="816.0" r="3" fill="#4499ff"/>
<circle cx="1406.1" cy="795.0" r="3" fill="#4499ff"/>
<circle cx="1427.3" cy="774.0" r="3" fill="#4499ff"/>
<circle cx="1445.8" cy="753.0" r="3" fill="#4499ff"/>
<circle cx="1467.5" cy="732.0" r="3" fill="#4499ff"/>
<circle cx="1486.4" cy="711.0" r="3" fill="#4499ff"/>
<circle cx="1511.0" cy="690.0" r="3" fill="#4499ff"/>
<circle cx="1532.2" cy="669.0" r="3" fill="#4499ff"/>
<circle cx="1550.7" cy="648.0" r="3" fill="#4499ff"/>
<circle cx="1572.4" cy="627.0" r="3" fill="#4499ff"/>
<circle cx="1595.7" cy="606.0" r="3" fill="#4499ff"/>
<circle cx="1615.9" cy="585.0" r="3" fill="#4499ff"/>
<circle cx="1637.0" cy="564.0" r="3" fill="#4499ff"/>
<circle cx="1655.6" cy="543.0" r="3" fill="#4499ff"/>
<circle cx="1677.2" cy="522.0" r="3" fill="#4499ff"/>
<circle cx="1696.2" cy="501.0" r="3" fill="#4499ff"/>
<circle cx="1720.8" cy="480.0" r="3" fill="#4499ff"/>
<circle cx="1741.9" cy="459.0" r="3" fill="#4499ff"/>
<circle cx="1760.5" cy="438.0" r="3" fill="#4499ff"/>
<circle cx="1782.1" cy="417.0" r="3" fill="#4499ff"/>
<circle cx="1805.4" cy="396.0" r="3" fill="#4499ff"/>
<circle cx="1825.7" cy="375.0" r="3" fill="#4499ff"/>
<circle cx="1846.8" cy="354.0" r="3" fill="#4499ff"/>
<circle cx="1865.4" cy="333.0" r="3" fill="#4499ff"/>
<circle cx="1887.0" cy="312.0" r="3" fill="#4499ff"/>
<circle cx="1905.9" cy="291.0" r="3" fill="#4499ff"/>
<circle cx="1930.5" cy="270.0" r="3" fill="#4499ff"/>
<circle cx="1951.7" cy="249.0" r="3" fill="#4499ff"/>
<circle cx="1970.2" cy="228.0" r="3" fill="#4499ff"/>
<circle cx="1991.9" cy="207.0" r="3" fill="#4499ff"/>
<circle cx="2015.2" cy="186.0" r="3" fill="#4499ff"/>
<circle cx="2035.4" cy="165.0" r="3" fill="#4499ff"/>
<circle cx="2056.6" cy="144.0" r="3" fill="#4499ff"/>
<circle cx="2075.1" cy="123.0" r="3" fill="#4499ff"/>
<circle cx="2096.8" cy="102.0" r="3" fill="#4499ff"/>
<circle cx="2115.7" cy="81.0" r="3" fill="#4499ff"/>
<circle cx="2140.3" cy="60.0" r="3" fill="#4499ff"/>
<circle cx="80.0" cy="1530.0" r="3" fill="#ff6600"/>
<circle cx="428.4" cy="1509.0" r="3" fill="#ff6600"/>
<circle cx="533.3" cy="1488.0" r="3" fill="#ff6600"/>
<circle cx="594.6" cy="1467.0" r="3" fill="#ff6600"/>
<circle cx="638.2" cy="1446.0" r="3" fill="#ff6600"/>
<circle cx="671.9" cy="1425.0" r="3" fill="#ff6600"/>
<circle cx="699.5" cy="1404.0" r="3" fill="#ff6600"/>
<circle cx="722.9" cy="1383.0" r="3" fill="#ff6600"/>
<circle cx="743.1" cy="1362.0" r="3" fill="#ff6600"/>
<circle cx="760.9" cy="1341.0" r="3" fill="#ff6600"/>
<circle cx="776.8" cy="1320.0" r="3" fill="#ff6600"/>
<circle cx="798.0" cy="1299.0" r="3" fill="#ff6600"/>
<circle cx="816.5" cy="1278.0" r="3" fill="#ff6600"/>
<circle cx="838.2" cy="1257.0" r="3" fill="#ff6600"/>
<circle cx="861.5" cy="1236.0" r="3" fill="#ff6600"/>
<circle cx="881.7" cy="1215.0" r="3" fill="#ff6600"/>
<circle cx="902.9" cy="1194.0" r="3" fill="#ff6600"/>
<circle cx="921.4" cy="1173.0" r="3" fill="#ff6600"/>
<circle cx="943.1" cy="1152.0" r="3" fill="#ff6600"/>
<circle cx="966.4" cy="1131.0" r="3" fill="#ff6600"/>
<circle cx="986.6" cy="1110.0" r="3" fill="#ff6600"/>
<circle cx="1007.7" cy="1089.0" r="3" fill="#ff6600"/>
<circle cx="1026.3" cy="1068.0" r="3" fill="#ff6600"/>
<circle cx="1047.9" cy="1047.0" r="3" fill="#ff6600"/>
<circle cx="1071.3" cy="1026.0" r="3" fill="#ff6600"/>
<circle cx="1091.5" cy="1005.0" r="3" fill="#ff6600"/>
<circle cx="1112.6" cy="984.0" r="3" fill="#ff6600"/>
<circle cx="1131.2" cy="963.0" r="3" fill="#ff6600"/>
<circle cx="1152.8" cy="942.0" r="3" fill="#ff6600"/>
<circle cx="1171.8" cy="921.0" r="3" fill="#ff6600"/>
<circle cx="1196.4" cy="900.0" r="3" fill="#ff6600"/>
<circle cx="1217.5" cy="879.0" r="3" fill="#ff6600"/>
<circle cx="1236.1" cy="858.0" r="3" fill="#ff6600"/>
<circle cx="1257.7" cy="837.0" r="3" fill="#ff6600"/>
<circle cx="1281.0" cy="816.0" r="3" fill="#ff6600"/>
<circle cx="1301.2" cy="795.0" r="3" fill="#ff6600"/>
<circle cx="1322.4" cy="774.0" r="3" fill="#ff6600"/>
<circle cx="1340.9" cy="753.0" r="3" fill="#ff6600"/>
<circle cx="1362.6" cy="732.0" r="3" fill="#ff6600"/>
<circle cx="1381.5" cy="711.0" r="3" fill="#ff6600"/>
<circle cx="1406.1" cy="690.0" r="3" fill="#ff6600"/>
<circle cx="1427.3" cy="669.0" r="3" fill="#ff6600"/>
<circle cx="1445.8" cy="648.0" r="3" fill="#ff6600"/>
<circle cx="1467.5" cy="627.0" r="3" fill="#ff6600"/>
<circle cx="1490.8" cy="606.0" r="3" fill="#ff6600"/>
<circle cx="1511.0" cy="585.0" r="3" fill="#ff6600"/>
<circle cx="1532.2" cy="564.0" r="3" fill="#ff6600"/>
<circle cx="1550.7" cy="543.0" r="3" fill="#ff6600"/>
<circle cx="1572.4" cy="522.0" r="3" fill="#ff6600"/>
<circle cx="1591.3" cy="501.0" r="3" fill="#ff6600"/>
<circle cx="1615.9" cy="480.0" r="3" fill="#ff6600"/>
<circle cx="1637.0" cy="459.0" r="3" fill="#ff6600"/>
<circle cx="1655.6" cy="438.0" r="3" fill="#ff6600"/>
<circle cx="1677.2" cy="417.0" r="3" fill="#ff6600"/>
<circle cx="1700.6" cy="396.0" r="3" fill="#ff6600"/>
<circle cx="1720.8" cy="375.0" r="3" fill="#ff6600"/>
<circle cx="1741.9" cy="354.0" r="3" fill="#ff6600"/>
<circle cx="1760.5" cy="333.0" r="3" fill="#ff6600"/>
<circle cx="1782.1" cy="312.0" r="3" fill="#ff6600"/>
<circle cx="1801.1" cy="291.0" r="3" fill="#ff6600"/>
<circle cx="1825.7" cy="270.0" r="3" fill="#ff6600"/>
<circle cx="1846.8" cy="249.0" r="3" fill="#ff6600"/>
<circle cx="1865.4" cy="228.0" r="3" fill="#ff6600"/>
<circle cx="1887.0" cy="207.0" r="3" fill="#ff6600"/>
<circle cx="1910.3" cy="186.0" r="3" fill="#ff6600"/>
<circle cx="1930.5" cy="165.0" r="3" fill="#ff6600"/>
<circle cx="1951.7" cy="144.0" r="3" fill="#ff6600"/>
<circle cx="1970.2" cy="123.0" r="3" fill="#ff6600"/>
<circle cx="1991.9" cy="102.0" r="3" fill="#ff6600"/>
<circle cx="2010.8" cy="81.0" r="3" fill="#ff6600"/>
<circle cx="2035.4" cy="60.0" r="3" fill="#ff6600"/>
<rect x="80" y="60" width="2100" height="1470" fill="none" stroke="#555555" stroke-width="1"/>
<text x="1130" y="1592" text-anchor="middle" fill="#aaaaaa" font-size="18">Weight (lbs) — Logarithmic Scale</text>
<text transform="translate(18,795) rotate(-90)" text-anchor="middle" fill="#aaaaaa" font-size="18">Strength Score (0–70)</text>
<rect x="1850" y="64" width="310" height="52" rx="6" fill="#1a1a3a" stroke="#333" stroke-width="1"/>
<line x1="1860" y1="80" x2="1890" y2="80" stroke="#ff6600" stroke-width="2.5"/>
<circle cx="1875" cy="80" r="3" fill="#ff6600"/>
<text x="1898" y="85" fill="#ddd" font-size="15">Overhead Lift</text>
<line x1="1860" y1="104" x2="1890" y2="104" stroke="#4499ff" stroke-width="2.5" stroke-dasharray="8,4"/>
<circle cx="1875" cy="104" r="3" fill="#4499ff"/>
<text x="1898" y="109" fill="#ddd" font-size="15">Max Lift (stagger ×2)</text>
</svg>