<svg xmlns="http://www.w3.org/2000/svg"
     viewBox="0 0 2400 1600"
     width="100%" height="auto"
     style="max-width:100%;display:block;background:#12122a;font-family:Segoe UI,Arial,sans-serif">
<rect width="2400" height="1600" fill="#12122a"/>
<text x="1200" y="36" text-anchor="middle" fill="#ff6600" font-size="28" font-weight="bold">PF1e Strength Carry Capacity — STR 0 to 60</text>
<text x="1200" y="54" text-anchor="middle" fill="#888" font-size="16">Log scale · STR 0 at bottom</text>
<line x1="80.0" y1="60" x2="80.0" y2="1530" stroke="#ffffff26" stroke-width="1"/>
<text x="80.0" y="1550" text-anchor="middle" fill="#bbbbbb" font-size="14" font-weight="bold">1 lbs</text>
<text x="80.0" y="50" text-anchor="middle" fill="#bbbbbb" font-size="14" font-weight="bold">1 lbs</text>
<line x1="196.5" y1="60" x2="196.5" y2="1530" stroke="#ffffff14" stroke-width="0.5"/>
<text x="196.5" y="1550" text-anchor="middle" fill="#777777" font-size="11" font-weight="normal">2 lbs</text>
<text x="196.5" y="50" text-anchor="middle" fill="#777777" font-size="11" font-weight="normal">2 lbs</text>
<line x1="350.6" y1="60" x2="350.6" y2="1530" stroke="#ffffff14" stroke-width="0.5"/>
<text x="350.6" y="1550" text-anchor="middle" fill="#777777" font-size="11" font-weight="normal">5 lbs</text>
<text x="350.6" y="50" text-anchor="middle" fill="#777777" font-size="11" font-weight="normal">5 lbs</text>
<line x1="467.1" y1="60" x2="467.1" y2="1530" stroke="#ffffff26" stroke-width="1"/>
<text x="467.1" y="1550" text-anchor="middle" fill="#bbbbbb" font-size="14" font-weight="bold">10 lbs</text>
<text x="467.1" y="50" text-anchor="middle" fill="#bbbbbb" font-size="14" font-weight="bold">10 lbs</text>
<line x1="583.6" y1="60" x2="583.6" y2="1530" stroke="#ffffff14" stroke-width="0.5"/>
<text x="583.6" y="1550" text-anchor="middle" fill="#777777" font-size="11" font-weight="normal">20 lbs</text>
<text x="583.6" y="50" text-anchor="middle" fill="#777777" font-size="11" font-weight="normal">20 lbs</text>
<line x1="737.6" y1="60" x2="737.6" y2="1530" stroke="#ffffff14" stroke-width="0.5"/>
<text x="737.6" y="1550" text-anchor="middle" fill="#777777" font-size="11" font-weight="normal">50 lbs</text>
<text x="737.6" y="50" text-anchor="middle" fill="#777777" font-size="11" font-weight="normal">50 lbs</text>
<line x1="854.2" y1="60" x2="854.2" y2="1530" stroke="#ffffff26" stroke-width="1"/>
<text x="854.2" y="1550" text-anchor="middle" fill="#bbbbbb" font-size="14" font-weight="bold">100 lbs</text>
<text x="854.2" y="50" text-anchor="middle" fill="#bbbbbb" font-size="14" font-weight="bold">100 lbs</text>
<line x1="970.7" y1="60" x2="970.7" y2="1530" stroke="#ffffff14" stroke-width="0.5"/>
<text x="970.7" y="1550" text-anchor="middle" fill="#777777" font-size="11" font-weight="normal">200 lbs</text>
<text x="970.7" y="50" text-anchor="middle" fill="#777777" font-size="11" font-weight="normal">200 lbs</text>
<line x1="1124.7" y1="60" x2="1124.7" y2="1530" stroke="#ffffff14" stroke-width="0.5"/>
<text x="1124.7" y="1550" text-anchor="middle" fill="#777777" font-size="11" font-weight="normal">500 lbs</text>
<text x="1124.7" y="50" text-anchor="middle" fill="#777777" font-size="11" font-weight="normal">500 lbs</text>
<line x1="1241.2" y1="60" x2="1241.2" y2="1530" stroke="#ffffff26" stroke-width="1"/>
<text x="1241.2" y="1550" text-anchor="middle" fill="#bbbbbb" font-size="14" font-weight="bold">1.0k lbs</text>
<text x="1241.2" y="50" text-anchor="middle" fill="#bbbbbb" font-size="14" font-weight="bold">1.0k lbs</text>
<line x1="1357.8" y1="60" x2="1357.8" y2="1530" stroke="#ffffff14" stroke-width="0.5"/>
<text x="1357.8" y="1550" text-anchor="middle" fill="#777777" font-size="11" font-weight="normal">1.0 tons</text>
<text x="1357.8" y="50" text-anchor="middle" fill="#777777" font-size="11" font-weight="normal">1.0 tons</text>
<line x1="1511.8" y1="60" x2="1511.8" y2="1530" stroke="#ffffff14" stroke-width="0.5"/>
<text x="1511.8" y="1550" text-anchor="middle" fill="#777777" font-size="11" font-weight="normal">2.5 tons</text>
<text x="1511.8" y="50" text-anchor="middle" fill="#777777" font-size="11" font-weight="normal">2.5 tons</text>
<line x1="1628.3" y1="60" x2="1628.3" y2="1530" stroke="#ffffff26" stroke-width="1"/>
<text x="1628.3" y="1550" text-anchor="middle" fill="#bbbbbb" font-size="14" font-weight="bold">5.0 tons</text>
<text x="1628.3" y="50" text-anchor="middle" fill="#bbbbbb" font-size="14" font-weight="bold">5.0 tons</text>
<line x1="1744.8" y1="60" x2="1744.8" y2="1530" stroke="#ffffff14" stroke-width="0.5"/>
<text x="1744.8" y="1550" text-anchor="middle" fill="#777777" font-size="11" font-weight="normal">10 tons</text>
<text x="1744.8" y="50" text-anchor="middle" fill="#777777" font-size="11" font-weight="normal">10 tons</text>
<line x1="1898.9" y1="60" x2="1898.9" y2="1530" stroke="#ffffff14" stroke-width="0.5"/>
<text x="1898.9" y="1550" text-anchor="middle" fill="#777777" font-size="11" font-weight="normal">25 tons</text>
<text x="1898.9" y="50" text-anchor="middle" fill="#777777" font-size="11" font-weight="normal">25 tons</text>
<line x1="2015.4" y1="60" x2="2015.4" y2="1530" stroke="#ffffff26" stroke-width="1"/>
<text x="2015.4" y="1550" text-anchor="middle" fill="#bbbbbb" font-size="14" font-weight="bold">50 tons</text>
<text x="2015.4" y="50" text-anchor="middle" fill="#bbbbbb" font-size="14" font-weight="bold">50 tons</text>
<line x1="2131.9" y1="60" x2="2131.9" y2="1530" stroke="#ffffff14" stroke-width="0.5"/>
<text x="2131.9" y="1550" text-anchor="middle" fill="#777777" font-size="11" font-weight="normal">100 tons</text>
<text x="2131.9" y="50" text-anchor="middle" fill="#777777" font-size="11" font-weight="normal">100 tons</text>
<line x1="80" y1="1530.0" x2="2180" y2="1530.0" stroke="#ffffff20" stroke-width="1"/>
<text x="72" y="1534.0" text-anchor="end" fill="#cccccc" font-size="13" font-weight="bold">0</text>
<line x1="80" y1="1505.5" x2="2180" y2="1505.5" stroke="#ffffff07" stroke-width="0.3"/>
<line x1="80" y1="1481.0" x2="2180" y2="1481.0" stroke="#ffffff07" stroke-width="0.3"/>
<line x1="80" y1="1456.5" x2="2180" y2="1456.5" stroke="#ffffff07" stroke-width="0.3"/>
<line x1="80" y1="1432.0" x2="2180" y2="1432.0" stroke="#ffffff07" stroke-width="0.3"/>
<line x1="80" y1="1407.5" x2="2180" y2="1407.5" stroke="#ffffff10" stroke-width="0.5"/>
<text x="72" y="1411.5" text-anchor="end" fill="#777777" font-size="10" font-weight="normal">5</text>
<line x1="80" y1="1383.0" x2="2180" y2="1383.0" stroke="#ffffff07" stroke-width="0.3"/>
<line x1="80" y1="1358.5" x2="2180" y2="1358.5" stroke="#ffffff07" stroke-width="0.3"/>
<line x1="80" y1="1334.0" x2="2180" y2="1334.0" stroke="#ffffff07" stroke-width="0.3"/>
<line x1="80" y1="1309.5" x2="2180" y2="1309.5" stroke="#ffffff07" stroke-width="0.3"/>
<line x1="80" y1="1285.0" x2="2180" y2="1285.0" stroke="#ffffff20" stroke-width="1"/>
<text x="72" y="1289.0" text-anchor="end" fill="#cccccc" font-size="13" font-weight="bold">10</text>
<line x1="80" y1="1260.5" x2="2180" y2="1260.5" stroke="#ffffff07" stroke-width="0.3"/>
<line x1="80" y1="1236.0" x2="2180" y2="1236.0" stroke="#ffffff07" stroke-width="0.3"/>
<line x1="80" y1="1211.5" x2="2180" y2="1211.5" stroke="#ffffff07" stroke-width="0.3"/>
<line x1="80" y1="1187.0" x2="2180" y2="1187.0" stroke="#ffffff07" stroke-width="0.3"/>
<line x1="80" y1="1162.5" x2="2180" y2="1162.5" stroke="#ffffff10" stroke-width="0.5"/>
<text x="72" y="1166.5" text-anchor="end" fill="#777777" font-size="10" font-weight="normal">15</text>
<line x1="80" y1="1138.0" x2="2180" y2="1138.0" stroke="#ffffff07" stroke-width="0.3"/>
<line x1="80" y1="1113.5" x2="2180" y2="1113.5" stroke="#ffffff07" stroke-width="0.3"/>
<line x1="80" y1="1089.0" x2="2180" y2="1089.0" stroke="#ffffff07" stroke-width="0.3"/>
<line x1="80" y1="1064.5" x2="2180" y2="1064.5" stroke="#ffffff07" stroke-width="0.3"/>
<line x1="80" y1="1040.0" x2="2180" y2="1040.0" stroke="#ffffff20" stroke-width="1"/>
<text x="72" y="1044.0" text-anchor="end" fill="#cccccc" font-size="13" font-weight="bold">20</text>
<line x1="80" y1="1015.5" x2="2180" y2="1015.5" stroke="#ffffff07" stroke-width="0.3"/>
<line x1="80" y1="991.0" x2="2180" y2="991.0" stroke="#ffffff07" stroke-width="0.3"/>
<line x1="80" y1="966.5" x2="2180" y2="966.5" stroke="#ffffff07" stroke-width="0.3"/>
<line x1="80" y1="942.0" x2="2180" y2="942.0" stroke="#ffffff07" stroke-width="0.3"/>
<line x1="80" y1="917.5" x2="2180" y2="917.5" stroke="#ffffff10" stroke-width="0.5"/>
<text x="72" y="921.5" text-anchor="end" fill="#777777" font-size="10" font-weight="normal">25</text>
<line x1="80" y1="893.0" x2="2180" y2="893.0" stroke="#ffffff07" stroke-width="0.3"/>
<line x1="80" y1="868.5" x2="2180" y2="868.5" stroke="#ffffff07" stroke-width="0.3"/>
<line x1="80" y1="844.0" x2="2180" y2="844.0" stroke="#ffffff07" stroke-width="0.3"/>
<line x1="80" y1="819.5" x2="2180" y2="819.5" stroke="#ffffff07" stroke-width="0.3"/>
<line x1="80" y1="795.0" x2="2180" y2="795.0" stroke="#ffffff20" stroke-width="1"/>
<text x="72" y="799.0" text-anchor="end" fill="#cccccc" font-size="13" font-weight="bold">30</text>
<line x1="80" y1="770.5" x2="2180" y2="770.5" stroke="#ffffff07" stroke-width="0.3"/>
<line x1="80" y1="746.0" x2="2180" y2="746.0" stroke="#ffffff07" stroke-width="0.3"/>
<line x1="80" y1="721.5" x2="2180" y2="721.5" stroke="#ffffff07" stroke-width="0.3"/>
<line x1="80" y1="697.0" x2="2180" y2="697.0" stroke="#ffffff07" stroke-width="0.3"/>
<line x1="80" y1="672.5" x2="2180" y2="672.5" stroke="#ffffff10" stroke-width="0.5"/>
<text x="72" y="676.5" text-anchor="end" fill="#777777" font-size="10" font-weight="normal">35</text>
<line x1="80" y1="648.0" x2="2180" y2="648.0" stroke="#ffffff07" stroke-width="0.3"/>
<line x1="80" y1="623.5" x2="2180" y2="623.5" stroke="#ffffff07" stroke-width="0.3"/>
<line x1="80" y1="599.0" x2="2180" y2="599.0" stroke="#ffffff07" stroke-width="0.3"/>
<line x1="80" y1="574.5" x2="2180" y2="574.5" stroke="#ffffff07" stroke-width="0.3"/>
<line x1="80" y1="550.0" x2="2180" y2="550.0" stroke="#ffffff20" stroke-width="1"/>
<text x="72" y="554.0" text-anchor="end" fill="#cccccc" font-size="13" font-weight="bold">40</text>
<line x1="80" y1="525.5" x2="2180" y2="525.5" stroke="#ffffff07" stroke-width="0.3"/>
<line x1="80" y1="501.0" x2="2180" y2="501.0" stroke="#ffffff07" stroke-width="0.3"/>
<line x1="80" y1="476.5" x2="2180" y2="476.5" stroke="#ffffff07" stroke-width="0.3"/>
<line x1="80" y1="452.0" x2="2180" y2="452.0" stroke="#ffffff07" stroke-width="0.3"/>
<line x1="80" y1="427.5" x2="2180" y2="427.5" stroke="#ffffff10" stroke-width="0.5"/>
<text x="72" y="431.5" text-anchor="end" fill="#777777" font-size="10" font-weight="normal">45</text>
<line x1="80" y1="403.0" x2="2180" y2="403.0" stroke="#ffffff07" stroke-width="0.3"/>
<line x1="80" y1="378.5" x2="2180" y2="378.5" stroke="#ffffff07" stroke-width="0.3"/>
<line x1="80" y1="354.0" x2="2180" y2="354.0" stroke="#ffffff07" stroke-width="0.3"/>
<line x1="80" y1="329.5" x2="2180" y2="329.5" stroke="#ffffff07" stroke-width="0.3"/>
<line x1="80" y1="305.0" x2="2180" y2="305.0" stroke="#ffffff20" stroke-width="1"/>
<text x="72" y="309.0" text-anchor="end" fill="#cccccc" font-size="13" font-weight="bold">50</text>
<line x1="80" y1="280.5" x2="2180" y2="280.5" stroke="#ffffff07" stroke-width="0.3"/>
<line x1="80" y1="256.0" x2="2180" y2="256.0" stroke="#ffffff07" stroke-width="0.3"/>
<line x1="80" y1="231.5" x2="2180" y2="231.5" stroke="#ffffff07" stroke-width="0.3"/>
<line x1="80" y1="207.0" x2="2180" y2="207.0" stroke="#ffffff07" stroke-width="0.3"/>
<line x1="80" y1="182.5" x2="2180" y2="182.5" stroke="#ffffff10" stroke-width="0.5"/>
<text x="72" y="186.5" text-anchor="end" fill="#777777" font-size="10" font-weight="normal">55</text>
<line x1="80" y1="158.0" x2="2180" y2="158.0" stroke="#ffffff07" stroke-width="0.3"/>
<line x1="80" y1="133.5" x2="2180" y2="133.5" stroke="#ffffff07" stroke-width="0.3"/>
<line x1="80" y1="109.0" x2="2180" y2="109.0" stroke="#ffffff07" stroke-width="0.3"/>
<line x1="80" y1="84.5" x2="2180" y2="84.5" stroke="#ffffff07" stroke-width="0.3"/>
<line x1="80" y1="60.0" x2="2180" y2="60.0" stroke="#ffffff20" stroke-width="1"/>
<text x="72" y="64.0" text-anchor="end" fill="#cccccc" font-size="13" font-weight="bold">60</text>
<line x1="80" y1="1285.0" x2="2180" y2="1285.0" stroke="#ffd70088" stroke-width="1" stroke-dasharray="5,4"/>
<text x="2190" y="1290.0" fill="#ffd700" font-size="13" font-weight="bold">Avg human</text>
<line x1="80" y1="1211.5" x2="2180" y2="1211.5" stroke="#ffd70088" stroke-width="1" stroke-dasharray="5,4"/>
<text x="2190" y="1216.5" fill="#ffd700" font-size="13" font-weight="bold">Johnny Blaze</text>
<line x1="80" y1="1089.0" x2="2180" y2="1089.0" stroke="#ffd70088" stroke-width="1" stroke-dasharray="5,4"/>
<text x="2190" y="1094.0" fill="#ffd700" font-size="13" font-weight="bold">Peak human</text>
<line x1="80" y1="1040.0" x2="2180" y2="1040.0" stroke="#ffd70088" stroke-width="1" stroke-dasharray="5,4"/>
<text x="2190" y="1045.0" fill="#ffd700" font-size="13" font-weight="bold">Low superhuman</text>
<line x1="80" y1="795.0" x2="2180" y2="795.0" stroke="#ffd70088" stroke-width="1" stroke-dasharray="5,4"/>
<text x="2190" y="800.0" fill="#ffd700" font-size="13" font-weight="bold">GR build (STR 30)</text>
<line x1="80" y1="599.0" x2="2180" y2="599.0" stroke="#ffd70088" stroke-width="1" stroke-dasharray="5,4"/>
<text x="2190" y="604.0" fill="#ffd700" font-size="13" font-weight="bold">Zarathos build (STR 38)</text>
<line x1="80" y1="452.0" x2="2180" y2="452.0" stroke="#ffd70088" stroke-width="1" stroke-dasharray="5,4"/>
<text x="2190" y="457.0" fill="#ffd700" font-size="13" font-weight="bold">GR classic — 5t overhead</text>
<line x1="80" y1="305.0" x2="2180" y2="305.0" stroke="#ffd70088" stroke-width="1" stroke-dasharray="5,4"/>
<text x="2190" y="310.0" fill="#ffd700" font-size="13" font-weight="bold">GR modern canon — 25t max lift</text>
<line x1="80" y1="60.0" x2="2180" y2="60.0" stroke="#ffd70088" stroke-width="1" stroke-dasharray="5,4"/>
<text x="2190" y="65.0" fill="#ffd700" font-size="13" font-weight="bold">Low Thor tier</text>
<polyline points="196.5,1530.0 583.6,1505.5 700.1,1481.0 768.3,1456.5 816.6,1432.0 854.2,1407.5 884.8,1383.0 910.7,1358.5 933.2,1334.0 953.0,1309.5 970.7,1285.0 994.2,1260.5 1014.8,1236.0 1038.8,1211.5 1064.8,1187.0 1087.2,1162.5 1110.7,1138.0 1131.3,1113.5 1155.4,1089.0 1181.3,1064.5 1203.7,1040.0 1227.2,1015.5 1247.8,991.0 1271.9,966.5 1297.8,942.0 1320.2,917.5 1343.7,893.0 1364.3,868.5 1388.4,844.0 1409.4,819.5 1436.8,795.0 1460.3,770.5 1480.9,746.0 1504.9,721.5 1530.8,697.0 1553.3,672.5 1576.8,648.0 1597.4,623.5 1621.4,599.0 1642.5,574.5 1669.8,550.0 1693.3,525.5 1713.9,501.0 1738.0,476.5 1763.9,452.0 1786.3,427.5 1809.8,403.0 1830.4,378.5 1854.5,354.0 1875.5,329.5 1902.9,305.0 1926.3,280.5 1947.0,256.0 1971.0,231.5 1996.9,207.0 2019.4,182.5 2042.9,158.0 2063.5,133.5 2087.5,109.0 2108.6,84.5 2135.9,60.0" fill="none" stroke="#4499ff" stroke-width="2.5" stroke-dasharray="10,5"/>
<polyline points="80.0,1530.0 467.1,1505.5 583.6,1481.0 651.8,1456.5 700.1,1432.0 737.6,1407.5 768.3,1383.0 794.2,1358.5 816.6,1334.0 836.4,1309.5 854.2,1285.0 877.6,1260.5 898.3,1236.0 922.3,1211.5 948.2,1187.0 970.7,1162.5 994.2,1138.0 1014.8,1113.5 1038.8,1089.0 1064.8,1064.5 1087.2,1040.0 1110.7,1015.5 1131.3,991.0 1155.4,966.5 1181.3,942.0 1203.7,917.5 1227.2,893.0 1247.8,868.5 1271.9,844.0 1292.9,819.5 1320.2,795.0 1343.7,770.5 1364.3,746.0 1388.4,721.5 1414.3,697.0 1436.8,672.5 1460.3,648.0 1480.9,623.5 1504.9,599.0 1526.0,574.5 1553.3,550.0 1576.8,525.5 1597.4,501.0 1621.4,476.5 1647.4,452.0 1669.8,427.5 1693.3,403.0 1713.9,378.5 1738.0,354.0 1759.0,329.5 1786.3,305.0 1809.8,280.5 1830.4,256.0 1854.5,231.5 1880.4,207.0 1902.9,182.5 1926.3,158.0 1947.0,133.5 1971.0,109.0 1992.1,84.5 2019.4,60.0" fill="none" stroke="#ff6600" stroke-width="2.5"/>
<circle cx="196.5" cy="1530.0" r="3" fill="#4499ff"/>
<circle cx="583.6" cy="1505.5" r="3" fill="#4499ff"/>
<circle cx="700.1" cy="1481.0" r="3" fill="#4499ff"/>
<circle cx="768.3" cy="1456.5" r="3" fill="#4499ff"/>
<circle cx="816.6" cy="1432.0" r="3" fill="#4499ff"/>
<circle cx="854.2" cy="1407.5" r="3" fill="#4499ff"/>
<circle cx="884.8" cy="1383.0" r="3" fill="#4499ff"/>
<circle cx="910.7" cy="1358.5" r="3" fill="#4499ff"/>
<circle cx="933.2" cy="1334.0" r="3" fill="#4499ff"/>
<circle cx="953.0" cy="1309.5" r="3" fill="#4499ff"/>
<circle cx="970.7" cy="1285.0" r="3" fill="#4499ff"/>
<circle cx="994.2" cy="1260.5" r="3" fill="#4499ff"/>
<circle cx="1014.8" cy="1236.0" r="3" fill="#4499ff"/>
<circle cx="1038.8" cy="1211.5" r="3" fill="#4499ff"/>
<circle cx="1064.8" cy="1187.0" r="3" fill="#4499ff"/>
<circle cx="1087.2" cy="1162.5" r="3" fill="#4499ff"/>
<circle cx="1110.7" cy="1138.0" r="3" fill="#4499ff"/>
<circle cx="1131.3" cy="1113.5" r="3" fill="#4499ff"/>
<circle cx="1155.4" cy="1089.0" r="3" fill="#4499ff"/>
<circle cx="1181.3" cy="1064.5" r="3" fill="#4499ff"/>
<circle cx="1203.7" cy="1040.0" r="3" fill="#4499ff"/>
<circle cx="1227.2" cy="1015.5" r="3" fill="#4499ff"/>
<circle cx="1247.8" cy="991.0" r="3" fill="#4499ff"/>
<circle cx="1271.9" cy="966.5" r="3" fill="#4499ff"/>
<circle cx="1297.8" cy="942.0" r="3" fill="#4499ff"/>
<circle cx="1320.2" cy="917.5" r="3" fill="#4499ff"/>
<circle cx="1343.7" cy="893.0" r="3" fill="#4499ff"/>
<circle cx="1364.3" cy="868.5" r="3" fill="#4499ff"/>
<circle cx="1388.4" cy="844.0" r="3" fill="#4499ff"/>
<circle cx="1409.4" cy="819.5" r="3" fill="#4499ff"/>
<circle cx="1436.8" cy="795.0" r="3" fill="#4499ff"/>
<circle cx="1460.3" cy="770.5" r="3" fill="#4499ff"/>
<circle cx="1480.9" cy="746.0" r="3" fill="#4499ff"/>
<circle cx="1504.9" cy="721.5" r="3" fill="#4499ff"/>
<circle cx="1530.8" cy="697.0" r="3" fill="#4499ff"/>
<circle cx="1553.3" cy="672.5" r="3" fill="#4499ff"/>
<circle cx="1576.8" cy="648.0" r="3" fill="#4499ff"/>
<circle cx="1597.4" cy="623.5" r="3" fill="#4499ff"/>
<circle cx="1621.4" cy="599.0" r="3" fill="#4499ff"/>
<circle cx="1642.5" cy="574.5" r="3" fill="#4499ff"/>
<circle cx="1669.8" cy="550.0" r="3" fill="#4499ff"/>
<circle cx="1693.3" cy="525.5" r="3" fill="#4499ff"/>
<circle cx="1713.9" cy="501.0" r="3" fill="#4499ff"/>
<circle cx="1738.0" cy="476.5" r="3" fill="#4499ff"/>
<circle cx="1763.9" cy="452.0" r="3" fill="#4499ff"/>
<circle cx="1786.3" cy="427.5" r="3" fill="#4499ff"/>
<circle cx="1809.8" cy="403.0" r="3" fill="#4499ff"/>
<circle cx="1830.4" cy="378.5" r="3" fill="#4499ff"/>
<circle cx="1854.5" cy="354.0" r="3" fill="#4499ff"/>
<circle cx="1875.5" cy="329.5" r="3" fill="#4499ff"/>
<circle cx="1902.9" cy="305.0" r="3" fill="#4499ff"/>
<circle cx="1926.3" cy="280.5" r="3" fill="#4499ff"/>
<circle cx="1947.0" cy="256.0" r="3" fill="#4499ff"/>
<circle cx="1971.0" cy="231.5" r="3" fill="#4499ff"/>
<circle cx="1996.9" cy="207.0" r="3" fill="#4499ff"/>
<circle cx="2019.4" cy="182.5" r="3" fill="#4499ff"/>
<circle cx="2042.9" cy="158.0" r="3" fill="#4499ff"/>
<circle cx="2063.5" cy="133.5" r="3" fill="#4499ff"/>
<circle cx="2087.5" cy="109.0" r="3" fill="#4499ff"/>
<circle cx="2108.6" cy="84.5" r="3" fill="#4499ff"/>
<circle cx="2135.9" cy="60.0" r="3" fill="#4499ff"/>
<circle cx="80.0" cy="1530.0" r="3" fill="#ff6600"/>
<circle cx="467.1" cy="1505.5" r="3" fill="#ff6600"/>
<circle cx="583.6" cy="1481.0" r="3" fill="#ff6600"/>
<circle cx="651.8" cy="1456.5" r="3" fill="#ff6600"/>
<circle cx="700.1" cy="1432.0" r="3" fill="#ff6600"/>
<circle cx="737.6" cy="1407.5" r="3" fill="#ff6600"/>
<circle cx="768.3" cy="1383.0" r="3" fill="#ff6600"/>
<circle cx="794.2" cy="1358.5" r="3" fill="#ff6600"/>
<circle cx="816.6" cy="1334.0" r="3" fill="#ff6600"/>
<circle cx="836.4" cy="1309.5" r="3" fill="#ff6600"/>
<circle cx="854.2" cy="1285.0" r="3" fill="#ff6600"/>
<circle cx="877.6" cy="1260.5" r="3" fill="#ff6600"/>
<circle cx="898.3" cy="1236.0" r="3" fill="#ff6600"/>
<circle cx="922.3" cy="1211.5" r="3" fill="#ff6600"/>
<circle cx="948.2" cy="1187.0" r="3" fill="#ff6600"/>
<circle cx="970.7" cy="1162.5" r="3" fill="#ff6600"/>
<circle cx="994.2" cy="1138.0" r="3" fill="#ff6600"/>
<circle cx="1014.8" cy="1113.5" r="3" fill="#ff6600"/>
<circle cx="1038.8" cy="1089.0" r="3" fill="#ff6600"/>
<circle cx="1064.8" cy="1064.5" r="3" fill="#ff6600"/>
<circle cx="1087.2" cy="1040.0" r="3" fill="#ff6600"/>
<circle cx="1110.7" cy="1015.5" r="3" fill="#ff6600"/>
<circle cx="1131.3" cy="991.0" r="3" fill="#ff6600"/>
<circle cx="1155.4" cy="966.5" r="3" fill="#ff6600"/>
<circle cx="1181.3" cy="942.0" r="3" fill="#ff6600"/>
<circle cx="1203.7" cy="917.5" r="3" fill="#ff6600"/>
<circle cx="1227.2" cy="893.0" r="3" fill="#ff6600"/>
<circle cx="1247.8" cy="868.5" r="3" fill="#ff6600"/>
<circle cx="1271.9" cy="844.0" r="3" fill="#ff6600"/>
<circle cx="1292.9" cy="819.5" r="3" fill="#ff6600"/>
<circle cx="1320.2" cy="795.0" r="3" fill="#ff6600"/>
<circle cx="1343.7" cy="770.5" r="3" fill="#ff6600"/>
<circle cx="1364.3" cy="746.0" r="3" fill="#ff6600"/>
<circle cx="1388.4" cy="721.5" r="3" fill="#ff6600"/>
<circle cx="1414.3" cy="697.0" r="3" fill="#ff6600"/>
<circle cx="1436.8" cy="672.5" r="3" fill="#ff6600"/>
<circle cx="1460.3" cy="648.0" r="3" fill="#ff6600"/>
<circle cx="1480.9" cy="623.5" r="3" fill="#ff6600"/>
<circle cx="1504.9" cy="599.0" r="3" fill="#ff6600"/>
<circle cx="1526.0" cy="574.5" r="3" fill="#ff6600"/>
<circle cx="1553.3" cy="550.0" r="3" fill="#ff6600"/>
<circle cx="1576.8" cy="525.5" r="3" fill="#ff6600"/>
<circle cx="1597.4" cy="501.0" r="3" fill="#ff6600"/>
<circle cx="1621.4" cy="476.5" r="3" fill="#ff6600"/>
<circle cx="1647.4" cy="452.0" r="3" fill="#ff6600"/>
<circle cx="1669.8" cy="427.5" r="3" fill="#ff6600"/>
<circle cx="1693.3" cy="403.0" r="3" fill="#ff6600"/>
<circle cx="1713.9" cy="378.5" r="3" fill="#ff6600"/>
<circle cx="1738.0" cy="354.0" r="3" fill="#ff6600"/>
<circle cx="1759.0" cy="329.5" r="3" fill="#ff6600"/>
<circle cx="1786.3" cy="305.0" r="3" fill="#ff6600"/>
<circle cx="1809.8" cy="280.5" r="3" fill="#ff6600"/>
<circle cx="1830.4" cy="256.0" r="3" fill="#ff6600"/>
<circle cx="1854.5" cy="231.5" r="3" fill="#ff6600"/>
<circle cx="1880.4" cy="207.0" r="3" fill="#ff6600"/>
<circle cx="1902.9" cy="182.5" r="3" fill="#ff6600"/>
<circle cx="1926.3" cy="158.0" r="3" fill="#ff6600"/>
<circle cx="1947.0" cy="133.5" r="3" fill="#ff6600"/>
<circle cx="1971.0" cy="109.0" r="3" fill="#ff6600"/>
<circle cx="1992.1" cy="84.5" r="3" fill="#ff6600"/>
<circle cx="2019.4" cy="60.0" r="3" fill="#ff6600"/>
<rect x="80" y="60" width="2100" height="1470" fill="none" stroke="#555555" stroke-width="1"/>
<text x="1130" y="1592" text-anchor="middle" fill="#aaaaaa" font-size="18">Weight (lbs) — Logarithmic Scale</text>
<text transform="translate(18,795) rotate(-90)" text-anchor="middle" fill="#aaaaaa" font-size="18">Strength Score (0–60)</text>
<rect x="1850" y="64" width="310" height="52" rx="6" fill="#1a1a3a" stroke="#333" stroke-width="1"/>
<line x1="1860" y1="80" x2="1890" y2="80" stroke="#ff6600" stroke-width="2.5"/>
<circle cx="1875" cy="80" r="3" fill="#ff6600"/>
<text x="1898" y="85" fill="#ddd" font-size="15">Overhead Lift</text>
<line x1="1860" y1="104" x2="1890" y2="104" stroke="#4499ff" stroke-width="2.5" stroke-dasharray="8,4"/>
<circle cx="1875" cy="104" r="3" fill="#4499ff"/>
<text x="1898" y="109" fill="#ddd" font-size="15">Max Lift (stagger ×2)</text>
</svg>